M48
METRIC,LZ,000.000
;FILE_FORMAT=3:3
;TYPE=PLATED
;Layer: PTH_Through_Via
;EasyEDA v6.5.44, 2024-08-01 17:58:32
;bf16dfa8b14249528ce45edaced80a03,d882a8cb847549dbb05e31b2b695811d,10
;Gerber Generator version 0.2
;Holesize 1 = 0.305 mm
T01C0.305
;Holesize 2 = 0.310 mm
T02C0.310
%
G05
G90
T01
X049871Y043252
X063967Y064634
X051607Y050669
X067730Y057621
X061528Y064771
X066282Y057093
X053919Y069009
X062576Y064107
X062641Y049061
X066090Y064322
X059728Y064240
X069596Y062397
X057328Y063917
X054478Y045585
X049678Y045585
T02
X062865Y059298
X051039Y069469
X049007Y069469
X044373Y064643
X050277Y058674
X043039Y057658
X047229Y049276
X042911Y050419
X045135Y045974
X064643Y048133
X066237Y050808
X047244Y067616
X067370Y065545
X065414Y052365
X053848Y071882
X050927Y045466
X045847Y042672
X063881Y061722
X069723Y056698
X066675Y053848
M30
