G04 Layer: TopSilkscreenLayer*
G04 EasyEDA v6.5.44, 2024-08-01 17:58:32*
G04 bf16dfa8b14249528ce45edaced80a03,d882a8cb847549dbb05e31b2b695811d,10*
G04 Gerber Generator version 0.2*
G04 Scale: 100 percent, Rotated: No, Reflected: No *
G04 Dimensions in millimeters *
G04 leading zeros omitted , absolute positions ,4 integer and 5 decimal *
%FSLAX45Y45*%
%MOMM*%

%ADD10C,0.2540*%
%ADD11C,0.1524*%
%ADD12C,0.1500*%
%ADD13C,0.1300*%
%ADD14C,0.1000*%
%ADD15C,0.0800*%
%ADD16C,0.3000*%
%ADD17C,0.0189*%

%LPD*%
G36*
X4495952Y4949901D02*
G01*
X4494987Y4877917D01*
X4520946Y4913884D01*
G37*
G36*
X4917998Y5484012D02*
G01*
X4917998Y5447030D01*
X4948478Y5447030D01*
X4948478Y5484012D01*
G37*
G36*
X4917998Y5320538D02*
G01*
X4917998Y5283555D01*
X4948478Y5283555D01*
X4948478Y5320538D01*
G37*
G36*
X5360416Y4725924D02*
G01*
X5360416Y4670044D01*
X5383276Y4697984D01*
G37*
G36*
X5406136Y4725924D02*
G01*
X5383276Y4697984D01*
X5406136Y4670044D01*
G37*
G36*
X4923536Y4827524D02*
G01*
X4900676Y4799584D01*
X4923536Y4771644D01*
G37*
G36*
X4877816Y4827524D02*
G01*
X4877816Y4771644D01*
X4900676Y4799584D01*
G37*
G36*
X4923536Y4662424D02*
G01*
X4900676Y4634484D01*
X4923536Y4606544D01*
G37*
G36*
X4877816Y4662424D02*
G01*
X4877816Y4606544D01*
X4900676Y4634484D01*
G37*
D10*
X5186400Y5529300D02*
G01*
X5186400Y6129299D01*
X5786399Y6129299D01*
X5786399Y5529300D01*
X5186400Y5529300D01*
X4745878Y4052417D02*
G01*
X4745878Y4238708D01*
X5639876Y3680579D02*
G01*
X4745878Y3680579D01*
X4745878Y3828709D01*
X5639876Y4052382D02*
G01*
X5639876Y4238744D01*
X5639876Y3680579D02*
G01*
X5639876Y3828745D01*
D11*
X4201279Y6011842D02*
G01*
X4866520Y6011842D01*
X4866520Y5717562D01*
X4201279Y5717562D01*
X4201279Y6011842D01*
D10*
X6794500Y6108700D02*
G01*
X6261100Y6108700D01*
X6261100Y5308600D01*
X6794500Y5308600D01*
X6794500Y6108700D01*
X6552801Y6234501D02*
G01*
X6552803Y7894505D01*
X6552803Y7354498D02*
G01*
X5232796Y7354498D01*
X5232796Y7894502D02*
G01*
X6552803Y7894502D01*
X5232798Y6234501D02*
G01*
X5232796Y7894502D01*
X5232798Y6234501D02*
G01*
X6552801Y6234501D01*
X4572000Y7073900D02*
G01*
X4470400Y7073900D01*
X4572000Y7277100D02*
G01*
X4470400Y7277100D01*
X4301210Y7121118D02*
G01*
X4301210Y7229881D01*
X4384558Y7023112D02*
G01*
X4657841Y7023112D01*
X4741189Y7121118D02*
G01*
X4741189Y7229881D01*
X4659309Y7330490D02*
G01*
X4383090Y7330490D01*
X5903975Y4126484D02*
G01*
X5903975Y4228084D01*
X6107175Y4126484D02*
G01*
X6107175Y4228084D01*
X5951194Y4397273D02*
G01*
X6059957Y4397273D01*
X5853188Y4313925D02*
G01*
X5853188Y4040642D01*
X5951194Y3957294D02*
G01*
X6059957Y3957294D01*
X6160566Y4039174D02*
G01*
X6160566Y4315393D01*
D11*
X4877836Y6493205D02*
G01*
X4877836Y6589092D01*
X4745715Y6589092D01*
X4745715Y6493205D01*
X4877836Y6407962D02*
G01*
X4877836Y6312075D01*
X4745715Y6312075D01*
X4745715Y6407962D01*
X6810197Y6194023D02*
G01*
X6906084Y6194023D01*
X6906084Y6326144D01*
X6810197Y6326144D01*
X6724954Y6194023D02*
G01*
X6629067Y6194023D01*
X6629067Y6326144D01*
X6724954Y6326144D01*
X4567915Y6458762D02*
G01*
X4567915Y6362875D01*
X4700036Y6362875D01*
X4700036Y6458762D01*
X4567915Y6544005D02*
G01*
X4567915Y6639892D01*
X4700036Y6639892D01*
X4700036Y6544005D01*
X4324654Y6973844D02*
G01*
X4228767Y6973844D01*
X4228767Y6841723D01*
X4324654Y6841723D01*
X4409897Y6973844D02*
G01*
X4505784Y6973844D01*
X4505784Y6841723D01*
X4409897Y6841723D01*
X4324654Y6796044D02*
G01*
X4228767Y6796044D01*
X4228767Y6663923D01*
X4324654Y6663923D01*
X4409897Y6796044D02*
G01*
X4505784Y6796044D01*
X4505784Y6663923D01*
X4409897Y6663923D01*
X6329121Y4518639D02*
G01*
X6425008Y4518639D01*
X6425008Y4650760D01*
X6329121Y4650760D01*
X6243878Y4518639D02*
G01*
X6147991Y4518639D01*
X6147991Y4650760D01*
X6243878Y4650760D01*
X5730260Y4728921D02*
G01*
X5730260Y4824808D01*
X5598139Y4824808D01*
X5598139Y4728921D01*
X5730260Y4643678D02*
G01*
X5730260Y4547791D01*
X5598139Y4547791D01*
X5598139Y4643678D01*
X4538421Y4340839D02*
G01*
X4634308Y4340839D01*
X4634308Y4472960D01*
X4538421Y4472960D01*
X4453178Y4340839D02*
G01*
X4357291Y4340839D01*
X4357291Y4472960D01*
X4453178Y4472960D01*
X4428215Y5163362D02*
G01*
X4428215Y5067475D01*
X4560336Y5067475D01*
X4560336Y5163362D01*
X4428215Y5248605D02*
G01*
X4428215Y5344492D01*
X4560336Y5344492D01*
X4560336Y5248605D01*
D12*
X4543976Y4986883D02*
G01*
X4658974Y4986883D01*
X4658974Y4841885D01*
X4538974Y4841885D01*
X4476976Y4840884D02*
G01*
X4352975Y4840884D01*
X4352975Y4985882D01*
X4476976Y4985882D01*
X4658974Y4986883D02*
G01*
X4661976Y4986883D01*
X4681976Y4966883D01*
X4681976Y4864884D01*
X4678974Y4861885D01*
X4658974Y4841885D01*
D10*
X6027699Y5481599D02*
G01*
X6027699Y4881600D01*
X5427700Y4881600D01*
X5427700Y5481599D01*
X6027699Y5481599D01*
D11*
X4940856Y5476405D02*
G01*
X5216095Y5476405D01*
X5216095Y5476405D02*
G01*
X5216095Y5452104D01*
X4940856Y5291162D02*
G01*
X5216095Y5291162D01*
X5216095Y5291162D02*
G01*
X5216095Y5315463D01*
X4981795Y5476405D02*
G01*
X4981795Y5291162D01*
D13*
X5448277Y4647984D02*
G01*
X5318274Y4647984D01*
X5448277Y4747983D02*
G01*
X5318274Y4747983D01*
D14*
X5383275Y4675123D02*
G01*
X5383275Y4723384D01*
D13*
X4835674Y4849583D02*
G01*
X4965677Y4849583D01*
X4835674Y4749584D02*
G01*
X4965677Y4749584D01*
D14*
X4900675Y4822444D02*
G01*
X4900675Y4774184D01*
D13*
X4835674Y4684483D02*
G01*
X4965677Y4684483D01*
X4835674Y4584484D02*
G01*
X4965677Y4584484D01*
D14*
X4900675Y4657344D02*
G01*
X4900675Y4609084D01*
D15*
X6901179Y5020310D02*
G01*
X6586220Y5020310D01*
X6903720Y4860289D02*
G01*
X6583679Y4860289D01*
X6776049Y5020310D02*
G01*
X6775676Y4860289D01*
D10*
X6908101Y5196177D02*
G01*
X6908101Y5116174D01*
X6797126Y5227162D02*
G01*
X6877123Y5227162D01*
X6797126Y5085196D02*
G01*
X6877123Y5085196D01*
X6739536Y5227744D02*
G01*
X6659537Y5227744D01*
X6628554Y5196761D02*
G01*
X6628554Y5116763D01*
X6739536Y5085783D02*
G01*
X6659537Y5085783D01*
X4860698Y7249985D02*
G01*
X4940701Y7249985D01*
X4829713Y7139010D02*
G01*
X4829713Y7219007D01*
X4971679Y7139010D02*
G01*
X4971679Y7219007D01*
X4829131Y7081420D02*
G01*
X4829131Y7001421D01*
X4860114Y6970438D02*
G01*
X4940112Y6970438D01*
X4971092Y7081420D02*
G01*
X4971092Y7001421D01*
X5063898Y7249985D02*
G01*
X5143901Y7249985D01*
X5032913Y7139010D02*
G01*
X5032913Y7219007D01*
X5174879Y7139010D02*
G01*
X5174879Y7219007D01*
X5032331Y7081420D02*
G01*
X5032331Y7001421D01*
X5063314Y6970438D02*
G01*
X5143312Y6970438D01*
X5174292Y7081420D02*
G01*
X5174292Y7001421D01*
X4228274Y6512206D02*
G01*
X4228274Y6592209D01*
X4339249Y6481221D02*
G01*
X4259252Y6481221D01*
X4339249Y6623187D02*
G01*
X4259252Y6623187D01*
X4396839Y6480639D02*
G01*
X4476838Y6480639D01*
X4507821Y6511622D02*
G01*
X4507821Y6591620D01*
X4396839Y6622600D02*
G01*
X4476838Y6622600D01*
X4593998Y6970585D02*
G01*
X4674001Y6970585D01*
X4563013Y6859610D02*
G01*
X4563013Y6939607D01*
X4704979Y6859610D02*
G01*
X4704979Y6939607D01*
X4562431Y6802020D02*
G01*
X4562431Y6722021D01*
X4593414Y6691038D02*
G01*
X4673412Y6691038D01*
X4704392Y6802020D02*
G01*
X4704392Y6722021D01*
X6147498Y4773322D02*
G01*
X6147498Y4853325D01*
X6258473Y4742337D02*
G01*
X6178476Y4742337D01*
X6258473Y4884303D02*
G01*
X6178476Y4884303D01*
X6316063Y4741755D02*
G01*
X6396062Y4741755D01*
X6427045Y4772738D02*
G01*
X6427045Y4852736D01*
X6316063Y4883716D02*
G01*
X6396062Y4883716D01*
X5323177Y4953698D02*
G01*
X5243174Y4953698D01*
X5354162Y5064673D02*
G01*
X5354162Y4984676D01*
X5212196Y5064673D02*
G01*
X5212196Y4984676D01*
X5354744Y5122263D02*
G01*
X5354744Y5202262D01*
X5323761Y5233245D02*
G01*
X5243763Y5233245D01*
X5212783Y5122263D02*
G01*
X5212783Y5202262D01*
X5142801Y5119977D02*
G01*
X5142801Y5039974D01*
X5031826Y5150962D02*
G01*
X5111823Y5150962D01*
X5031826Y5008996D02*
G01*
X5111823Y5008996D01*
X4974236Y5151544D02*
G01*
X4894237Y5151544D01*
X4863254Y5120561D02*
G01*
X4863254Y5040563D01*
X4974236Y5009583D02*
G01*
X4894237Y5009583D01*
X4304474Y4658006D02*
G01*
X4304474Y4738009D01*
X4415449Y4627021D02*
G01*
X4335452Y4627021D01*
X4415449Y4768987D02*
G01*
X4335452Y4768987D01*
X4473039Y4626439D02*
G01*
X4553038Y4626439D01*
X4584021Y4657422D02*
G01*
X4584021Y4737420D01*
X4473039Y4768400D02*
G01*
X4553038Y4768400D01*
X4278022Y5333301D02*
G01*
X4358025Y5333301D01*
X4247037Y5222326D02*
G01*
X4247037Y5302323D01*
X4389003Y5222326D02*
G01*
X4389003Y5302323D01*
X4246455Y5164736D02*
G01*
X4246455Y5084737D01*
X4277438Y5053754D02*
G01*
X4357436Y5053754D01*
X4388416Y5164736D02*
G01*
X4388416Y5084737D01*
X5067653Y5549582D02*
G01*
X4987650Y5549582D01*
X5098638Y5660557D02*
G01*
X5098638Y5580560D01*
X4956672Y5660557D02*
G01*
X4956672Y5580560D01*
X5099220Y5718147D02*
G01*
X5099220Y5798146D01*
X5068237Y5829129D02*
G01*
X4988239Y5829129D01*
X4957259Y5718147D02*
G01*
X4957259Y5798146D01*
X4682898Y5344985D02*
G01*
X4762901Y5344985D01*
X4651913Y5234010D02*
G01*
X4651913Y5314007D01*
X4793879Y5234010D02*
G01*
X4793879Y5314007D01*
X4651331Y5176420D02*
G01*
X4651331Y5096421D01*
X4682314Y5065438D02*
G01*
X4762312Y5065438D01*
X4793292Y5176420D02*
G01*
X4793292Y5096421D01*
G75*
G01*
X4470400Y7073900D02*
G02*
X4470400Y7277100I0J101600D01*
G75*
G01*
X4572000Y7277100D02*
G02*
X4572000Y7073900I0J-101600D01*
G75*
G01*
X5903976Y4228084D02*
G02*
X6107176Y4228084I101600J0D01*
G75*
G01*
X6107176Y4126484D02*
G02*
X5903976Y4126484I-101600J0D01*
G75*
G01*
X6628549Y5196761D02*
G02*
X6659532Y5227744I30983J0D01*
G75*
G01*
X6659532Y5085778D02*
G02*
X6628549Y5116764I0J30983D01*
G75*
G01*
X6877119Y5227163D02*
G02*
X6908101Y5196177I0J-30983D01*
G75*
G01*
X6908101Y5116180D02*
G02*
X6877119Y5085197I-30982J0D01*
G75*
G01*
X4860115Y6970433D02*
G02*
X4829132Y7001416I0J30983D01*
G75*
G01*
X4971097Y7001416D02*
G02*
X4940112Y6970433I-30982J0D01*
G75*
G01*
X4829713Y7219003D02*
G02*
X4860699Y7249985I30983J0D01*
G75*
G01*
X4940696Y7249985D02*
G02*
X4971679Y7219003I0J-30982D01*
G75*
G01*
X5063315Y6970433D02*
G02*
X5032332Y7001416I0J30983D01*
G75*
G01*
X5174297Y7001416D02*
G02*
X5143312Y6970433I-30982J0D01*
G75*
G01*
X5032913Y7219003D02*
G02*
X5063899Y7249985I30983J0D01*
G75*
G01*
X5143896Y7249985D02*
G02*
X5174879Y7219003I0J-30982D01*
G75*
G01*
X4507827Y6511623D02*
G02*
X4476844Y6480640I-30983J0D01*
G75*
G01*
X4476844Y6622606D02*
G02*
X4507827Y6591620I0J-30983D01*
G75*
G01*
X4259257Y6481221D02*
G02*
X4228274Y6512207I0J30983D01*
G75*
G01*
X4228274Y6592204D02*
G02*
X4259257Y6623187I30983J0D01*
G75*
G01*
X4593415Y6691033D02*
G02*
X4562432Y6722016I0J30983D01*
G75*
G01*
X4704397Y6722016D02*
G02*
X4673412Y6691033I-30982J0D01*
G75*
G01*
X4563013Y6939603D02*
G02*
X4593999Y6970585I30983J0D01*
G75*
G01*
X4673996Y6970585D02*
G02*
X4704979Y6939603I0J-30982D01*
G75*
G01*
X6427051Y4772739D02*
G02*
X6396068Y4741756I-30983J0D01*
G75*
G01*
X6396068Y4883722D02*
G02*
X6427051Y4852736I0J-30983D01*
G75*
G01*
X6178481Y4742337D02*
G02*
X6147499Y4773323I0J30983D01*
G75*
G01*
X6147499Y4853320D02*
G02*
X6178481Y4884303I30982J0D01*
G75*
G01*
X5323761Y5233251D02*
G02*
X5354744Y5202268I0J-30983D01*
G75*
G01*
X5212778Y5202268D02*
G02*
X5243764Y5233251I30983J0D01*
G75*
G01*
X5354163Y4984681D02*
G02*
X5323177Y4953699I-30983J0D01*
G75*
G01*
X5243180Y4953699D02*
G02*
X5212197Y4984681I0J30982D01*
G75*
G01*
X4863249Y5120561D02*
G02*
X4894232Y5151544I30983J0D01*
G75*
G01*
X4894232Y5009578D02*
G02*
X4863249Y5040564I0J30983D01*
G75*
G01*
X5111819Y5150963D02*
G02*
X5142801Y5119977I0J-30983D01*
G75*
G01*
X5142801Y5039980D02*
G02*
X5111819Y5008997I-30982J0D01*
G75*
G01*
X4584027Y4657423D02*
G02*
X4553044Y4626440I-30983J0D01*
G75*
G01*
X4553044Y4768406D02*
G02*
X4584027Y4737420I0J-30983D01*
G75*
G01*
X4335457Y4627021D02*
G02*
X4304474Y4658007I0J30983D01*
G75*
G01*
X4304474Y4738004D02*
G02*
X4335457Y4768987I30983J0D01*
G75*
G01*
X4277439Y5053749D02*
G02*
X4246456Y5084732I0J30983D01*
G75*
G01*
X4388422Y5084732D02*
G02*
X4357436Y5053749I-30983J0D01*
G75*
G01*
X4247037Y5302319D02*
G02*
X4278023Y5333301I30983J0D01*
G75*
G01*
X4358020Y5333301D02*
G02*
X4389003Y5302319I0J-30982D01*
G75*
G01*
X5068237Y5829135D02*
G02*
X5099220Y5798152I0J-30983D01*
G75*
G01*
X4957254Y5798152D02*
G02*
X4988240Y5829135I30983J0D01*
G75*
G01*
X5098639Y5580565D02*
G02*
X5067653Y5549583I-30983J0D01*
G75*
G01*
X4987656Y5549583D02*
G02*
X4956673Y5580565I0J30982D01*
G75*
G01*
X4682315Y5065433D02*
G02*
X4651332Y5096416I0J30983D01*
G75*
G01*
X4793297Y5096416D02*
G02*
X4762312Y5065433I-30982J0D01*
G75*
G01*
X4651913Y5314003D02*
G02*
X4682899Y5344985I30983J0D01*
G75*
G01*
X4762896Y5344985D02*
G02*
X4793879Y5314003I0J-30982D01*
D16*
G75*
G01
X6360922Y6059805D02*
G03X6360922Y6059805I-15011J0D01*
G75*
G01
X6186602Y6120435D02*
G03X6186602Y6120435I-15011J0D01*
D10*
G75*
G01
X5202809Y7194499D02*
G03X5202809Y7194499I-10008J0D01*
M02*
