G04 Layer: TopLayer*
G04 EasyEDA v6.5.44, 2024-08-01 17:58:32*
G04 bf16dfa8b14249528ce45edaced80a03,d882a8cb847549dbb05e31b2b695811d,10*
G04 Gerber Generator version 0.2*
G04 Scale: 100 percent, Rotated: No, Reflected: No *
G04 Dimensions in millimeters *
G04 leading zeros omitted , absolute positions ,4 integer and 5 decimal *
%FSLAX45Y45*%
%MOMM*%

%AMMACRO1*21,1,$1,$2,0,0,$3*%
%AMMACRO2*4,1,5,-0.725,0.125,-0.125,0.725,0.725,0.725,0.725,-0.725,-0.725,-0.725,-0.725,0.125,0*%
%ADD10C,0.2540*%
%ADD11R,0.3000X1.3000*%
%ADD12R,1.1000X2.5000*%
%ADD13MACRO1,3.6X2.34X0.0000*%
%ADD14O,1.3240004X0.30800039999999995*%
%ADD15R,0.8000X0.4000*%
%ADD16R,0.4000X0.8000*%
%ADD17R,0.7000X0.7000*%
%ADD18MACRO2*%
%ADD19R,1.4500X1.4500*%
%ADD20R,1.0500X0.7000*%
%ADD21R,0.7000X1.0500*%
%ADD22MACRO1,0.864X0.8065X0.0000*%
%ADD23R,0.8640X0.8065*%
%ADD24MACRO1,0.864X0.8065X90.0000*%
%ADD25MACRO1,0.864X0.8065X-90.0000*%
%ADD26R,0.8999X1.0000*%
%ADD27R,0.9100X1.2200*%
%ADD28R,0.6000X0.4000*%
%ADD29R,1.5000X1.3589*%
%ADD30R,0.8000X0.9000*%
%ADD31R,0.9000X0.8000*%
%ADD32R,1.8000X1.8000*%
%ADD33O,1.1999976X1.7999964*%
%ADD34O,1.1999976X1.9999959999999999*%
%ADD35C,0.6200*%
%ADD36C,0.6096*%
%ADD37C,0.0111*%

%LPD*%
G36*
X6868159Y6045200D02*
G01*
X6864248Y6045962D01*
X6860997Y6048197D01*
X6858762Y6051448D01*
X6858000Y6055360D01*
X6858000Y6061252D01*
X6858711Y6064961D01*
X6860692Y6068110D01*
X6863689Y6070396D01*
X6867296Y6071362D01*
X6912457Y6075121D01*
X6915454Y6074918D01*
X6918299Y6073851D01*
X6929526Y6073851D01*
X6933387Y6073089D01*
X6936689Y6070854D01*
X6938873Y6067602D01*
X6939686Y6063691D01*
X6939686Y6056934D01*
X6938873Y6053023D01*
X6935673Y6048705D01*
X6932371Y6046520D01*
X6928510Y6045758D01*
X6916572Y6045758D01*
X6913270Y6045200D01*
G37*

%LPD*%
G36*
X6161887Y4097934D02*
G01*
X6157976Y4098696D01*
X6154674Y4100931D01*
X6152438Y4104233D01*
X6151676Y4108094D01*
X6151676Y4189526D01*
X6152438Y4193387D01*
X6154623Y4196689D01*
X6157925Y4198924D01*
X6161786Y4199686D01*
X7034733Y4203700D01*
X7035800Y4204716D01*
X7023100Y4736998D01*
X7023100Y4863084D01*
X7022236Y4864150D01*
X6974230Y4866690D01*
X6970522Y4867605D01*
X6967372Y4869840D01*
X6965340Y4873040D01*
X6964629Y4876800D01*
X6964629Y4899964D01*
X6907530Y4899964D01*
X6907530Y4880914D01*
X6906717Y4876901D01*
X6904380Y4873498D01*
X6900925Y4871364D01*
X6896862Y4870754D01*
X6829501Y4874310D01*
X6825742Y4875225D01*
X6822643Y4877460D01*
X6820560Y4880660D01*
X6819849Y4884420D01*
X6819849Y4899964D01*
X6791959Y4899964D01*
X6788048Y4900726D01*
X6784797Y4902962D01*
X6782562Y4906264D01*
X6781800Y4910124D01*
X6781800Y4970475D01*
X6782562Y4974336D01*
X6784797Y4977638D01*
X6788048Y4979873D01*
X6791959Y4980635D01*
X6819849Y4980635D01*
X6819849Y4993640D01*
X6820611Y4997551D01*
X6822846Y5000802D01*
X6826097Y5003038D01*
X6830009Y5003800D01*
X6897370Y5003800D01*
X6901281Y5003038D01*
X6904583Y5000802D01*
X6906768Y4997551D01*
X6907530Y4993640D01*
X6907530Y4980635D01*
X6964629Y4980635D01*
X6964629Y4993640D01*
X6965391Y4997551D01*
X6967575Y5000802D01*
X6970877Y5003038D01*
X6974789Y5003800D01*
X7022084Y5003800D01*
X7023100Y5004816D01*
X7023100Y5116931D01*
X7022084Y5118049D01*
X6915708Y5112156D01*
X6911644Y5112715D01*
X6908190Y5114899D01*
X6905802Y5118252D01*
X6904990Y5122265D01*
X6904990Y5127345D01*
X6865416Y5127345D01*
X6865416Y5118963D01*
X6864705Y5115204D01*
X6862673Y5111953D01*
X6859574Y5109718D01*
X6855866Y5108803D01*
X6823456Y5107025D01*
X6819392Y5107635D01*
X6815937Y5109768D01*
X6813550Y5113121D01*
X6812737Y5117134D01*
X6812737Y5127345D01*
X6804659Y5127345D01*
X6800748Y5128107D01*
X6797497Y5130342D01*
X6795262Y5133644D01*
X6794500Y5137505D01*
X6794500Y5174894D01*
X6795262Y5178755D01*
X6797497Y5182057D01*
X6800748Y5184292D01*
X6804659Y5185054D01*
X6812737Y5185054D01*
X6812737Y5196840D01*
X6813499Y5200751D01*
X6815734Y5204002D01*
X6819036Y5206238D01*
X6822897Y5207000D01*
X6855256Y5207000D01*
X6859168Y5206238D01*
X6862470Y5204002D01*
X6864654Y5200751D01*
X6865416Y5196840D01*
X6865416Y5185054D01*
X6904990Y5185054D01*
X6904990Y5196840D01*
X6905752Y5200751D01*
X6907987Y5204002D01*
X6911289Y5206238D01*
X6915150Y5207000D01*
X7009384Y5207000D01*
X7010501Y5207711D01*
X7022998Y5320233D01*
X7022084Y5321401D01*
X6984390Y5324500D01*
X6980834Y5325516D01*
X6977888Y5327650D01*
X6975856Y5330748D01*
X6915607Y5330748D01*
X6912457Y5330545D01*
X6878777Y5333339D01*
X6875475Y5334152D01*
X6872630Y5336082D01*
X6870598Y5338775D01*
X6869531Y5342026D01*
X6859676Y5411317D01*
X6859981Y5415584D01*
X6862064Y5419394D01*
X6865518Y5421985D01*
X6869734Y5422900D01*
X7022084Y5422900D01*
X7023100Y5423916D01*
X7023100Y5642406D01*
X7024014Y5646572D01*
X7025944Y5650839D01*
X7028332Y5660186D01*
X7029196Y5669788D01*
X7028332Y5679389D01*
X7025944Y5688736D01*
X7024014Y5693003D01*
X7023100Y5697169D01*
X7023100Y5777484D01*
X7022287Y5778550D01*
X6984695Y5781446D01*
X6980428Y5782767D01*
X6977125Y5785764D01*
X6928459Y5785764D01*
X6867398Y5790488D01*
X6863740Y5791454D01*
X6860692Y5793689D01*
X6858711Y5796889D01*
X6858000Y5800598D01*
X6858000Y5806440D01*
X6858762Y5810351D01*
X6860997Y5813602D01*
X6864248Y5815838D01*
X6868159Y5816600D01*
X6913270Y5816600D01*
X6917029Y5815888D01*
X6920230Y5813856D01*
X6978650Y5813856D01*
X6981901Y5815888D01*
X6985609Y5816600D01*
X7021931Y5816600D01*
X7023049Y5817616D01*
X7012076Y6015380D01*
X7012279Y6018123D01*
X7013905Y6021984D01*
X7016089Y6029198D01*
X7016902Y6037224D01*
X7016902Y6148578D01*
X7022998Y6209030D01*
X7022795Y6210249D01*
X7018985Y6213449D01*
X7017410Y6216396D01*
X7016089Y6228588D01*
X7015378Y6233414D01*
X7015937Y6239713D01*
X7015073Y6249517D01*
X7012533Y6259017D01*
X7008418Y6267907D01*
X7002780Y6275984D01*
X6995820Y6282893D01*
X6987794Y6288532D01*
X6978853Y6292697D01*
X6969404Y6295237D01*
X6959600Y6296101D01*
X6949795Y6295237D01*
X6940346Y6292697D01*
X6931406Y6288532D01*
X6925106Y6284112D01*
X6921042Y6282436D01*
X6916674Y6282639D01*
X6913168Y6284417D01*
X6915200Y6280505D01*
X6915353Y6276086D01*
X6913676Y6272022D01*
X6910781Y6267907D01*
X6906666Y6259017D01*
X6904126Y6249517D01*
X6903415Y6241389D01*
X6902399Y6237782D01*
X6900164Y6234785D01*
X6896963Y6232804D01*
X6893255Y6232144D01*
X6869430Y6232144D01*
X6869430Y6220460D01*
X6868617Y6216548D01*
X6866432Y6213297D01*
X6863130Y6211062D01*
X6859270Y6210300D01*
X6826554Y6210300D01*
X6822643Y6211062D01*
X6819341Y6213297D01*
X6817156Y6216548D01*
X6816394Y6220460D01*
X6816394Y6232144D01*
X6809486Y6232144D01*
X6805574Y6232906D01*
X6802272Y6235090D01*
X6800088Y6238392D01*
X6799325Y6243167D01*
X6804355Y6279286D01*
X6805472Y6282740D01*
X6807758Y6285534D01*
X6810857Y6287414D01*
X6816394Y6288024D01*
X6816394Y6294323D01*
X6817309Y6298539D01*
X6819900Y6301994D01*
X6823659Y6304026D01*
X6856374Y6313678D01*
X6860133Y6314033D01*
X6863740Y6313017D01*
X6866737Y6310782D01*
X6868718Y6307582D01*
X6869430Y6303924D01*
X6869430Y6288024D01*
X6905396Y6288024D01*
X6909663Y6287058D01*
X6912660Y6284772D01*
X6910070Y6288176D01*
X6909155Y6292443D01*
X6909155Y6302705D01*
X6908444Y6309055D01*
X6904888Y6318351D01*
X6904888Y6322060D01*
X6906209Y6325565D01*
X6908698Y6328359D01*
X6912000Y6330035D01*
X7021830Y6362344D01*
X7023100Y6363716D01*
X7010552Y7342987D01*
X7011263Y7346950D01*
X7013448Y7350302D01*
X7016750Y7352538D01*
X7020712Y7353300D01*
X7087108Y7353300D01*
X7091019Y7352538D01*
X7094270Y7350302D01*
X7096506Y7347051D01*
X7097268Y7343140D01*
X7097268Y4112260D01*
X7096506Y4108348D01*
X7094270Y4105097D01*
X7091019Y4102862D01*
X7087108Y4102100D01*
G37*

%LPC*%
G36*
X6923430Y5358841D02*
G01*
X6973468Y5358841D01*
X6972909Y5360568D01*
X6969099Y5367731D01*
X6966508Y5370830D01*
X6964832Y5373878D01*
X6964222Y5377281D01*
X6964832Y5380736D01*
X6966508Y5383733D01*
X6969099Y5386882D01*
X6972909Y5393994D01*
X6973468Y5395772D01*
X6923430Y5395772D01*
G37*

%LPD*%
G36*
X4189171Y4049928D02*
G01*
X4185208Y4050639D01*
X4181856Y4052824D01*
X4179620Y4056176D01*
X4178808Y4060088D01*
X4178808Y7386574D01*
X4179570Y7390485D01*
X4181805Y7393736D01*
X4185107Y7395972D01*
X4188968Y7396734D01*
X7087108Y7396734D01*
X7091019Y7395972D01*
X7094270Y7393736D01*
X7096506Y7390485D01*
X7097268Y7386574D01*
X7097268Y7363663D01*
X7096455Y7359700D01*
X7094220Y7356398D01*
X7090867Y7354214D01*
X7086955Y7353503D01*
X6273901Y7366000D01*
X5157216Y7366000D01*
X5156200Y7364984D01*
X5156200Y7257034D01*
X5155438Y7253173D01*
X5153202Y7249871D01*
X5149951Y7247636D01*
X5146040Y7246874D01*
X5132730Y7246874D01*
X5132730Y7207300D01*
X5146040Y7207300D01*
X5149951Y7206538D01*
X5153202Y7204354D01*
X5155438Y7201052D01*
X5156200Y7197140D01*
X5156200Y7164781D01*
X5155438Y7160920D01*
X5153202Y7157618D01*
X5149951Y7155383D01*
X5146040Y7154621D01*
X5132730Y7154621D01*
X5132730Y7147559D01*
X5131968Y7143648D01*
X5129733Y7140397D01*
X5126431Y7138162D01*
X5122570Y7137400D01*
X5085181Y7137400D01*
X5081320Y7138162D01*
X5078018Y7140397D01*
X5075783Y7143648D01*
X5075021Y7147559D01*
X5075021Y7154621D01*
X5066284Y7154621D01*
X5062270Y7155434D01*
X5058918Y7157821D01*
X5056733Y7161275D01*
X5056174Y7165340D01*
X5057952Y7197750D01*
X5058867Y7201458D01*
X5061102Y7204557D01*
X5064353Y7206589D01*
X5068112Y7207300D01*
X5075021Y7207300D01*
X5075021Y7246874D01*
X5071414Y7246874D01*
X5067401Y7247686D01*
X5064048Y7250074D01*
X5061864Y7253528D01*
X5061254Y7257592D01*
X5067249Y7364882D01*
X5066284Y7366000D01*
X4941316Y7366000D01*
X4940300Y7364984D01*
X4940300Y7257034D01*
X4939538Y7253173D01*
X4937302Y7249871D01*
X4934051Y7247636D01*
X4929530Y7246874D01*
X4929530Y7207300D01*
X4934051Y7206538D01*
X4937302Y7204354D01*
X4939538Y7201052D01*
X4940300Y7197140D01*
X4940300Y7164781D01*
X4939538Y7160920D01*
X4937302Y7157618D01*
X4934051Y7155383D01*
X4929530Y7154621D01*
X4929530Y7147559D01*
X4928768Y7143648D01*
X4926533Y7140397D01*
X4923231Y7138162D01*
X4919370Y7137400D01*
X4881981Y7137400D01*
X4878120Y7138162D01*
X4874818Y7140397D01*
X4872583Y7143648D01*
X4871821Y7147559D01*
X4871821Y7154621D01*
X4861560Y7154621D01*
X4857648Y7155383D01*
X4854397Y7157618D01*
X4852162Y7160920D01*
X4851400Y7164781D01*
X4851400Y7197140D01*
X4852162Y7201052D01*
X4854397Y7204354D01*
X4857648Y7206538D01*
X4861560Y7207300D01*
X4871821Y7207300D01*
X4871821Y7246874D01*
X4861560Y7246874D01*
X4857648Y7247636D01*
X4854397Y7249871D01*
X4852162Y7253173D01*
X4851400Y7257034D01*
X4851400Y7339431D01*
X4850434Y7340904D01*
X4814062Y7353046D01*
X4812487Y7353300D01*
X4230116Y7353300D01*
X4229100Y7352284D01*
X4229100Y6966102D01*
X4228541Y6962749D01*
X4226407Y6956755D01*
X4225696Y6950405D01*
X4225696Y6935724D01*
X4265422Y6935724D01*
X4266234Y6940651D01*
X4268419Y6943902D01*
X4271721Y6946138D01*
X4275582Y6946900D01*
X4308297Y6946900D01*
X4312208Y6946138D01*
X4315510Y6943902D01*
X4317695Y6940651D01*
X4318457Y6935724D01*
X4320540Y6935724D01*
X4324451Y6934962D01*
X4327702Y6932777D01*
X4329938Y6929475D01*
X4330700Y6925564D01*
X4330700Y6890003D01*
X4329938Y6886092D01*
X4327702Y6882790D01*
X4324451Y6880606D01*
X4320540Y6879844D01*
X4318457Y6879844D01*
X4318457Y6870446D01*
X4317593Y6866331D01*
X4315104Y6862927D01*
X4311497Y6860794D01*
X4307281Y6860336D01*
X4274566Y6863588D01*
X4271010Y6864654D01*
X4268063Y6866890D01*
X4266133Y6870090D01*
X4265422Y6873697D01*
X4265422Y6879844D01*
X4225696Y6879844D01*
X4224832Y6875627D01*
X4222394Y6872173D01*
X4218736Y6870090D01*
X4214571Y6869633D01*
X4204970Y6870598D01*
X4203700Y6869684D01*
X4203700Y6770116D01*
X4204716Y6769100D01*
X4215536Y6769100D01*
X4219448Y6768338D01*
X4222750Y6766102D01*
X4224934Y6762851D01*
X4225696Y6758940D01*
X4225696Y6690359D01*
X4224934Y6686448D01*
X4222750Y6683197D01*
X4219448Y6680962D01*
X4215536Y6680200D01*
X4204716Y6680200D01*
X4203700Y6679184D01*
X4203700Y5322316D01*
X4204563Y5321249D01*
X4210558Y5320944D01*
X4214266Y5320030D01*
X4217365Y5317794D01*
X4219448Y5314543D01*
X4220159Y5310784D01*
X4220159Y5302300D01*
X4262221Y5302300D01*
X4262221Y5307533D01*
X4263034Y5311546D01*
X4265371Y5314899D01*
X4268876Y5317032D01*
X4272940Y5317642D01*
X4310278Y5315712D01*
X4314037Y5314746D01*
X4317136Y5312511D01*
X4319219Y5309311D01*
X4319930Y5305552D01*
X4319930Y5302300D01*
X4361992Y5302300D01*
X4362805Y5306314D01*
X4365193Y5309666D01*
X4368647Y5311800D01*
X4372660Y5312410D01*
X4415536Y5310174D01*
X4418685Y5309463D01*
X4421479Y5307838D01*
X4466336Y5307838D01*
X4466336Y5347563D01*
X4460849Y5348528D01*
X4457344Y5351272D01*
X4455312Y5355234D01*
X4455210Y5359704D01*
X4463135Y5399278D01*
X4464558Y5402783D01*
X4467098Y5405475D01*
X4470501Y5407101D01*
X4474260Y5407406D01*
X4479493Y5406796D01*
X4500067Y5406796D01*
X4500067Y5488838D01*
X4485487Y5488838D01*
X4481423Y5489702D01*
X4478020Y5492089D01*
X4475886Y5495696D01*
X4475327Y5499811D01*
X4482439Y5592419D01*
X4483303Y5595772D01*
X4485233Y5598668D01*
X4488027Y5600700D01*
X4491329Y5601716D01*
X4573270Y5611977D01*
X4577537Y5611622D01*
X4581245Y5609488D01*
X4583785Y5606084D01*
X4584700Y5601868D01*
X4584700Y5498998D01*
X4583938Y5495137D01*
X4581702Y5491835D01*
X4578451Y5489651D01*
X4574540Y5488838D01*
X4567732Y5488838D01*
X4567732Y5404205D01*
X4570120Y5401106D01*
X4571136Y5397296D01*
X4570628Y5393436D01*
X4557115Y5352897D01*
X4555134Y5349392D01*
X4551984Y5346954D01*
X4548073Y5345938D01*
X4543247Y5346852D01*
X4536897Y5347563D01*
X4522216Y5347563D01*
X4522216Y5307838D01*
X4536440Y5307838D01*
X4540351Y5307025D01*
X4543602Y5304840D01*
X4545838Y5301538D01*
X4546600Y5297678D01*
X4546600Y5264962D01*
X4545838Y5261051D01*
X4543602Y5257749D01*
X4540351Y5255564D01*
X4536440Y5254802D01*
X4522216Y5254802D01*
X4522216Y5242560D01*
X4521454Y5238648D01*
X4519269Y5235397D01*
X4515967Y5233162D01*
X4512056Y5232400D01*
X4476496Y5232400D01*
X4472584Y5233162D01*
X4469282Y5235397D01*
X4467098Y5238648D01*
X4466336Y5242560D01*
X4466336Y5254802D01*
X4425188Y5254802D01*
X4425188Y5242560D01*
X4424375Y5238648D01*
X4422190Y5235397D01*
X4418888Y5233162D01*
X4415028Y5232400D01*
X4372152Y5232400D01*
X4368241Y5233162D01*
X4364939Y5235397D01*
X4362754Y5238648D01*
X4361992Y5242560D01*
X4361992Y5249621D01*
X4319930Y5249621D01*
X4319930Y5242560D01*
X4319168Y5238648D01*
X4316933Y5235397D01*
X4313631Y5233162D01*
X4309770Y5232400D01*
X4272381Y5232400D01*
X4268520Y5233162D01*
X4265218Y5235397D01*
X4262983Y5238648D01*
X4262221Y5242560D01*
X4262221Y5249621D01*
X4220159Y5249621D01*
X4220159Y5242560D01*
X4219397Y5238648D01*
X4217212Y5235397D01*
X4213910Y5233162D01*
X4209999Y5232400D01*
X4203852Y5232196D01*
X4216349Y4738116D01*
X4217314Y4737100D01*
X4297426Y4737100D01*
X4301286Y4736338D01*
X4304588Y4734102D01*
X4306824Y4730851D01*
X4307586Y4726838D01*
X4347159Y4726838D01*
X4347921Y4730851D01*
X4350105Y4734102D01*
X4353407Y4736338D01*
X4357319Y4737100D01*
X4389678Y4737100D01*
X4393539Y4736338D01*
X4396841Y4734102D01*
X4399076Y4730851D01*
X4399838Y4726838D01*
X4409440Y4726838D01*
X4413351Y4726076D01*
X4416602Y4723841D01*
X4418838Y4720539D01*
X4419600Y4716678D01*
X4419600Y4679289D01*
X4418838Y4675428D01*
X4416602Y4672126D01*
X4413351Y4669891D01*
X4409440Y4669129D01*
X4399635Y4669129D01*
X4398416Y4665878D01*
X4396130Y4663236D01*
X4393133Y4661509D01*
X4389678Y4660900D01*
X4357319Y4660900D01*
X4353864Y4661509D01*
X4350816Y4663236D01*
X4348581Y4665878D01*
X4347311Y4669129D01*
X4307382Y4669129D01*
X4306163Y4665878D01*
X4303877Y4663236D01*
X4300829Y4661509D01*
X4297426Y4660900D01*
X4217670Y4660900D01*
X4216501Y4659884D01*
X4267098Y4192015D01*
X4267962Y4191000D01*
X4711446Y4193032D01*
X4715357Y4192270D01*
X4718659Y4190085D01*
X4720894Y4186783D01*
X4721656Y4182872D01*
X4721656Y4101541D01*
X4720894Y4097629D01*
X4718710Y4094378D01*
X4715408Y4092143D01*
X4711547Y4091381D01*
X4280966Y4089400D01*
X4278934Y4088993D01*
X4193082Y4050842D01*
G37*

%LPD*%
D10*
X4291939Y6729984D02*
G01*
X4203700Y6729984D01*
X6361836Y4584700D02*
G01*
X7048500Y4584700D01*
X6698995Y5156200D02*
G01*
X6698995Y5353304D01*
X6667500Y5384800D01*
X6376415Y5384800D01*
X6286500Y5474715D01*
X6884009Y5669787D02*
G01*
X6972300Y5669787D01*
X6286500Y5539790D02*
G01*
X6286500Y5864809D01*
X6171590Y5864809D01*
X6171590Y5474792D02*
G01*
X6286500Y5474792D01*
X6286500Y5539790D01*
X6171590Y5539790D01*
X6286500Y5864809D02*
G01*
X6286500Y5929807D01*
X6388100Y6172200D02*
G01*
X6487795Y6271895D01*
X6487795Y6299504D01*
X6464300Y4813300D02*
G01*
X6591300Y4940300D01*
X6623710Y4940300D01*
X4420463Y4406900D02*
G01*
X4420463Y4504385D01*
X4513478Y4597400D01*
X4584700Y4267200D02*
G01*
X4571136Y4280763D01*
X4571136Y4406900D01*
X5067782Y4437397D02*
G01*
X5067782Y4521682D01*
X5092700Y4546600D01*
X5384800Y7188200D02*
G01*
X5378500Y7194499D01*
X5302808Y7194499D01*
X6736968Y6554495D02*
G01*
X6736968Y6554495D01*
X6550913Y6554495D01*
X6171590Y5994806D02*
G01*
X6171590Y6059804D01*
X5359400Y5829300D02*
G01*
X5477357Y5829300D01*
X6171590Y5994806D02*
G01*
X5554395Y5994806D01*
X5477357Y5917768D01*
X5477357Y5829300D01*
X6171590Y5734786D02*
G01*
X6171590Y5799810D01*
X5613400Y5829300D02*
G01*
X5731357Y5829300D01*
X6171590Y5799810D02*
G01*
X5760847Y5799810D01*
X5731357Y5829300D01*
X5367781Y4437405D02*
G01*
X5367781Y4697171D01*
X5432247Y4761636D01*
X5664200Y4761636D01*
X5447791Y4437405D02*
G01*
X5417769Y4437405D01*
X5417769Y4437405D02*
G01*
X5417769Y4344441D01*
X4967782Y4437405D02*
G01*
X4967782Y4396587D01*
X5241975Y5383784D02*
G01*
X5315458Y5383784D01*
X4967782Y4396587D02*
G01*
X4937785Y4426585D01*
X4937785Y4437405D01*
X5417769Y4344441D02*
G01*
X5417184Y4343857D01*
X5417184Y4259173D01*
X5455386Y4220971D01*
X5658916Y4220971D01*
X5735497Y4297553D01*
X5735497Y4822621D01*
X5431434Y5126685D01*
X5431434Y5267807D01*
X5315458Y5383784D01*
X5447791Y4437405D02*
G01*
X5447791Y4558461D01*
X4975682Y4634484D02*
G01*
X4967782Y4626584D01*
X4967782Y4558461D01*
X4967782Y4558461D02*
G01*
X4967782Y4437405D01*
X4722875Y5275986D02*
G01*
X4722875Y5363565D01*
X4763897Y5404586D01*
X5027675Y5550458D02*
G01*
X4950129Y5472912D01*
X4914976Y5472912D01*
X5027675Y5618581D02*
G01*
X5027675Y5550458D01*
X4914976Y5428361D02*
G01*
X4763897Y5428361D01*
X4914976Y5383784D02*
G01*
X4914976Y5428361D01*
X4914976Y5428361D02*
G01*
X4914976Y5472912D01*
X4763897Y5557723D02*
G01*
X4763897Y5428361D01*
X4763897Y5428361D02*
G01*
X4763897Y5404586D01*
X5600700Y5181600D02*
G01*
X5718657Y5181600D01*
X5718657Y5181600D02*
G01*
X5718657Y5270068D01*
X6053378Y5604789D01*
X6171590Y5604789D01*
X6171590Y5604789D02*
G01*
X6171590Y5669787D01*
X5854700Y5181600D02*
G01*
X6008395Y5181600D01*
X6171590Y5344795D01*
X6171590Y5344795D02*
G01*
X6171590Y5409793D01*
X6959600Y6239738D02*
G01*
X6978268Y6221069D01*
X6978268Y6036716D01*
X6936359Y5994806D01*
X6884009Y5994806D01*
X5732805Y6304508D02*
G01*
X5732805Y6391681D01*
X5972809Y6304508D02*
G01*
X5972809Y6423990D01*
X6884009Y5929807D02*
G01*
X6815759Y5929807D01*
X6760692Y5984875D01*
X6760692Y6329400D01*
X6657924Y6432169D01*
X6609003Y6432169D01*
X4633975Y6969709D02*
G01*
X4650587Y6986320D01*
X4650587Y7068007D01*
X4731207Y7068007D02*
G01*
X4650587Y7068007D01*
X4408398Y6729984D02*
G01*
X4408398Y6802246D01*
X4442612Y6836460D01*
X4442612Y6872122D02*
G01*
X4442612Y6836460D01*
X4442612Y6872122D02*
G01*
X4442612Y6907784D01*
X4811826Y7282992D02*
G01*
X4811826Y7068007D01*
X4731207Y7282992D02*
G01*
X4811826Y7282992D01*
X4731207Y7068007D02*
G01*
X4811826Y7068007D01*
X4633975Y6901586D02*
G01*
X4633975Y6943445D01*
X4633975Y6943445D02*
G01*
X4633975Y6969709D01*
X4442612Y6729984D02*
G01*
X4425518Y6729984D01*
X4425518Y6729984D02*
G01*
X4505426Y6650075D01*
X4505426Y6579133D01*
X4576318Y6508242D01*
X4697882Y6508242D01*
X4705324Y6515684D01*
X4705324Y6546697D01*
X4793132Y6634505D01*
X5302808Y6634505D01*
X4425518Y6729984D02*
G01*
X4416958Y6729984D01*
X4416958Y6729984D02*
G01*
X4408398Y6729984D01*
X4416958Y6729984D02*
G01*
X4365396Y6678421D01*
X4365396Y6552184D01*
X4297273Y6552184D02*
G01*
X4365396Y6552184D01*
X4442612Y6907784D02*
G01*
X4442612Y6925614D01*
X4520895Y6943445D02*
G01*
X4633975Y6943445D01*
X4442612Y6925614D02*
G01*
X4503064Y6925614D01*
X4520895Y6943445D01*
X4391812Y7282992D02*
G01*
X4391812Y7068007D01*
X4311192Y7282992D02*
G01*
X4391812Y7282992D01*
X4311192Y7068007D02*
G01*
X4391812Y7068007D01*
X4520895Y6943445D02*
G01*
X4520895Y6956983D01*
X4409871Y7068007D01*
X4391812Y7068007D01*
X4811775Y6457467D02*
G01*
X4880229Y6457467D01*
X5101310Y6236385D01*
X5412790Y6236385D01*
X4811775Y6525920D02*
G01*
X4811775Y6457467D01*
X5412790Y6304508D02*
G01*
X5412790Y6236385D01*
X6623964Y6260084D02*
G01*
X6600240Y6236360D01*
X6212966Y6236360D01*
X6212789Y6236538D01*
X6692239Y6260084D02*
G01*
X6623964Y6260084D01*
X6212789Y6304508D02*
G01*
X6212789Y6236538D01*
X4421962Y4991862D02*
G01*
X4423765Y4991862D01*
X4494275Y5062372D01*
X4494275Y5130647D02*
G01*
X4494275Y5062372D01*
X4421962Y4913884D02*
G01*
X4421962Y4991862D01*
X4825695Y4799584D02*
G01*
X4883658Y4799584D01*
X4883658Y4634484D02*
G01*
X4883658Y4799584D01*
X4825695Y4634484D02*
G01*
X4870627Y4634484D01*
X4870627Y4634484D02*
G01*
X4877943Y4634484D01*
X4877943Y4634484D02*
G01*
X4883658Y4634484D01*
X4877943Y4634484D02*
G01*
X4877943Y4550537D01*
X4857775Y4530369D01*
X4857775Y4437405D02*
G01*
X4857775Y4530369D01*
X4760264Y4360570D02*
G01*
X4780940Y4360570D01*
X4857775Y4437405D01*
X4760264Y3942587D02*
G01*
X4760264Y4360570D01*
X5625287Y4380026D02*
G01*
X5625287Y4360570D01*
X5664200Y4610963D02*
G01*
X5664200Y4418939D01*
X5625287Y4380026D01*
X5625287Y4380026D02*
G01*
X5585155Y4380026D01*
X5527776Y4437405D01*
X5458282Y4697984D02*
G01*
X5516245Y4697984D01*
X5516245Y4437405D02*
G01*
X5516245Y4697984D01*
X5527776Y4437405D02*
G01*
X5516245Y4437405D01*
X5516245Y4437405D02*
G01*
X5497779Y4437405D01*
X4887772Y4437405D02*
G01*
X4857775Y4437405D01*
X4883658Y4799584D02*
G01*
X4933797Y4849723D01*
X4933797Y5080000D01*
X5001768Y5080000D02*
G01*
X5001768Y5147970D01*
X5016500Y5162702D01*
X5283200Y5162702D01*
X4933797Y5080000D02*
G01*
X5001768Y5080000D01*
X6211163Y4584700D02*
G01*
X6211163Y4620285D01*
X6211163Y4620285D02*
G01*
X6211163Y4655870D01*
X6211163Y4620285D02*
G01*
X6113068Y4522190D01*
X6113068Y4387291D01*
X5898083Y4387291D02*
G01*
X5898083Y4306823D01*
X6113068Y4387291D02*
G01*
X6113068Y4306823D01*
X6113068Y4306823D02*
G01*
X6113068Y3967276D01*
X6113068Y4306823D02*
G01*
X5898083Y4306823D01*
X5898083Y4306823D02*
G01*
X5898083Y3967276D01*
X6211163Y4655870D02*
G01*
X6216497Y4661204D01*
X6216497Y4813300D01*
X6292799Y6304508D02*
G01*
X6292799Y6372479D01*
X6292799Y6372479D02*
G01*
X6257645Y6407632D01*
X6257645Y6410705D01*
X6216497Y4813300D02*
G01*
X6216497Y4858537D01*
X6264097Y4906137D01*
X4633975Y6644995D02*
G01*
X4702251Y6644995D01*
X4931765Y6874510D01*
X5302808Y6874510D01*
X4633975Y6576720D02*
G01*
X4633975Y6644995D01*
X5492800Y6304508D02*
G01*
X5492800Y6236385D01*
X5492800Y6236385D02*
G01*
X5617692Y6111494D01*
X6232296Y6111494D01*
X6569557Y5774232D01*
X6569557Y5647131D01*
X6741896Y5474792D01*
X6884009Y5474792D01*
X5302808Y6794500D02*
G01*
X5370931Y6794500D01*
X5370931Y6794500D02*
G01*
X5370931Y6879945D01*
X5391911Y6900926D01*
X6884009Y5539790D02*
G01*
X6734708Y5539790D01*
X6628155Y5646343D01*
X6628155Y5709310D01*
X5892800Y6304508D02*
G01*
X5892800Y6236385D01*
X5892800Y6236385D02*
G01*
X5976823Y6152362D01*
X6268821Y6152362D01*
X6686753Y5734430D01*
X6686753Y5665749D01*
X6747713Y5604789D01*
X6884009Y5604789D01*
X6772986Y5762117D02*
G01*
X6800316Y5734786D01*
X6884009Y5734786D01*
X6132804Y6372631D02*
G01*
X6152794Y6392621D01*
X6152794Y6477050D01*
X6132804Y6304508D02*
G01*
X6132804Y6372631D01*
X6052794Y6236385D02*
G01*
X6095923Y6193256D01*
X6285763Y6193256D01*
X6614210Y5864809D01*
X6884009Y5864809D01*
X6052794Y6304508D02*
G01*
X6052794Y6236385D01*
X5283200Y4954574D02*
G01*
X5308295Y4929479D01*
X5308295Y4697984D01*
X5283200Y5022697D02*
G01*
X5283200Y4954574D01*
X5308295Y4697984D02*
G01*
X5267782Y4657470D01*
X5267782Y4437405D01*
X5167782Y4437405D02*
G01*
X5167782Y4344288D01*
X5267782Y4437405D02*
G01*
X5267782Y4378934D01*
X6482791Y6554495D02*
G01*
X6550913Y6554495D01*
X5264835Y4344288D02*
G01*
X5167782Y4344288D01*
X5267782Y4378934D02*
G01*
X5264835Y4375988D01*
X5264835Y4344288D01*
X5264835Y4344288D02*
G01*
X5428995Y4180128D01*
X5679871Y4180128D01*
X5776340Y4276597D01*
X5776340Y4503801D01*
X6509080Y5236540D01*
X6541368Y5236540D01*
X5073802Y5080000D02*
G01*
X5073802Y5006873D01*
X4975682Y4799584D02*
G01*
X5023586Y4799584D01*
X5023586Y4799584D02*
G01*
X5073802Y4849799D01*
X5073802Y5006873D01*
X6482791Y6474510D02*
G01*
X6414693Y6474510D01*
X5145481Y5006873D02*
G01*
X5073802Y5006873D01*
X5217769Y4437405D02*
G01*
X5217769Y4934585D01*
X5145481Y5006873D01*
X5145481Y5006873D02*
G01*
X5145481Y5051602D01*
X5160746Y5066868D01*
X6414693Y6474510D02*
G01*
X6403593Y6463411D01*
X6396736Y6463411D01*
X4987061Y4325162D02*
G01*
X5098643Y4325162D01*
X5117769Y4344288D01*
X5117769Y4437405D02*
G01*
X5117769Y4344288D01*
X4633975Y6761581D02*
G01*
X4724400Y6761581D01*
X6699097Y5156200D02*
G01*
X6623710Y5080812D01*
X6623710Y5080812D02*
G01*
X6623710Y5080812D01*
X6623710Y4940300D01*
X6356502Y4813300D02*
G01*
X6464300Y4813300D01*
X4513478Y4697984D02*
G01*
X4513478Y4597400D01*
X4722875Y5135981D02*
G01*
X4722875Y4927600D01*
X4722875Y4927600D02*
G01*
X4722875Y4927600D01*
X4709159Y4913884D01*
X4591972Y4913884D01*
X4318000Y5124297D02*
G01*
X4318000Y5068826D01*
X4291073Y5041900D01*
X4303902Y5557718D02*
G01*
X4303902Y5765800D01*
X5027675Y5758586D02*
G01*
X5027675Y5867400D01*
X4437278Y6552184D02*
G01*
X4437278Y6464300D01*
X5103875Y7040981D02*
G01*
X5103875Y6946900D01*
X4900675Y7040981D02*
G01*
X4900675Y6946900D01*
X4633975Y6426047D02*
G01*
X4622647Y6426047D01*
X4584700Y6388100D01*
X4191000Y6388100D01*
X4811775Y6375247D02*
G01*
X4760975Y6426047D01*
X4633975Y6426047D01*
X5302808Y7034504D02*
G01*
X5271795Y7034504D01*
X5125313Y7180986D01*
X5103875Y7180986D01*
X5302808Y6394500D02*
G01*
X5353100Y6394500D01*
X5397500Y6438900D01*
X5534659Y6438900D01*
X5572759Y6477000D01*
X5297804Y6299504D02*
G01*
X5302808Y6304508D01*
X5302808Y6394500D01*
X5572759Y6304534D02*
G01*
X5572759Y6477000D01*
X5695188Y6596887D01*
X6487795Y6299504D02*
G01*
X6476695Y6299504D01*
X6240513Y6535686D01*
X6240513Y6535686D02*
G01*
X6179210Y6596989D01*
X6090284Y6596989D01*
X5732805Y7284491D02*
G01*
X5732805Y7029526D01*
X5695289Y6992010D01*
X5302808Y7114489D02*
G01*
X5302808Y7194499D01*
X5302808Y7194499D02*
G01*
X5297804Y7199503D01*
X5297804Y7289495D01*
X6372809Y7284491D02*
G01*
X6377813Y7289495D01*
X6487795Y7289495D01*
X6292799Y7284491D02*
G01*
X6372809Y7284491D01*
X6212789Y7284491D02*
G01*
X6292799Y7284491D01*
X6132804Y7284491D02*
G01*
X6212789Y7284491D01*
X6052794Y7284491D02*
G01*
X6132804Y7284491D01*
X5972809Y7284491D02*
G01*
X6052794Y7284491D01*
X5892800Y7284491D02*
G01*
X5972809Y7284491D01*
X5812790Y7284491D02*
G01*
X5892800Y7284491D01*
X5732805Y7284491D02*
G01*
X5812790Y7284491D01*
X5652795Y7284491D02*
G01*
X5732805Y7284491D01*
X5572810Y7284491D02*
G01*
X5652795Y7284491D01*
X5492800Y7284491D02*
G01*
X5572810Y7284491D01*
X5297804Y7289495D02*
G01*
X5302808Y7284491D01*
X5412790Y7284491D01*
X5412790Y7284491D02*
G01*
X5492800Y7284491D01*
X5695289Y6596989D02*
G01*
X5695289Y6794500D01*
X5892800Y6596989D02*
G01*
X5695289Y6596989D01*
X5892800Y6794500D02*
G01*
X5695289Y6794500D01*
X5892800Y6596989D02*
G01*
X5892800Y6794500D01*
X6090284Y6596989D02*
G01*
X5892800Y6596989D01*
X6090284Y6794500D02*
G01*
X6090284Y6596989D01*
X5892800Y6794500D02*
G01*
X6090284Y6794500D01*
X6090284Y6794500D02*
G01*
X6090284Y6991985D01*
X5892800Y6794500D02*
G01*
X5892800Y6991985D01*
X5695289Y6794500D02*
G01*
X5695289Y6992010D01*
X6090284Y6991985D02*
G01*
X5892800Y6991985D01*
X5695188Y6992112D02*
G01*
X5892800Y6991858D01*
X6171590Y5929807D02*
G01*
X6286500Y5929807D01*
D11*
G01*
X5017770Y4437397D03*
G01*
X5067782Y4437397D03*
G01*
X5117769Y4437397D03*
G01*
X5167782Y4437397D03*
G01*
X5217769Y4437397D03*
G01*
X5267782Y4437397D03*
G01*
X5317743Y4437397D03*
G01*
X5367781Y4437397D03*
G01*
X4857775Y4437397D03*
G01*
X4887772Y4437397D03*
G01*
X4937785Y4437397D03*
G01*
X4967782Y4437397D03*
G01*
X5417769Y4437397D03*
G01*
X5447791Y4437397D03*
G01*
X5497779Y4437397D03*
G01*
X5527776Y4437397D03*
D12*
G01*
X4303902Y5557718D03*
G01*
X4533900Y5557718D03*
G01*
X4763897Y5557718D03*
D13*
G01*
X4533900Y6151702D03*
D14*
G01*
X6171590Y6059804D03*
G01*
X6171590Y5994806D03*
G01*
X6171590Y5929807D03*
G01*
X6171590Y5864809D03*
G01*
X6171590Y5799810D03*
G01*
X6171590Y5734786D03*
G01*
X6171590Y5669787D03*
G01*
X6171590Y5604789D03*
G01*
X6171590Y5539790D03*
G01*
X6171590Y5474792D03*
G01*
X6171590Y5409793D03*
G01*
X6171590Y5344795D03*
G01*
X6884009Y6059804D03*
G01*
X6884009Y5994806D03*
G01*
X6884009Y5929807D03*
G01*
X6884009Y5864809D03*
G01*
X6884009Y5799810D03*
G01*
X6884009Y5734786D03*
G01*
X6884009Y5669787D03*
G01*
X6884009Y5604789D03*
G01*
X6884009Y5539790D03*
G01*
X6884009Y5474792D03*
G01*
X6884009Y5409793D03*
G01*
X6884009Y5344795D03*
D15*
G01*
X5302808Y7194499D03*
G01*
X5302808Y7114489D03*
G01*
X5302808Y7034504D03*
G01*
X5302808Y6954494D03*
G01*
X5302808Y6874510D03*
G01*
X5302808Y6794500D03*
G01*
X5302808Y6714489D03*
G01*
X5302808Y6634505D03*
G01*
X5302808Y6554495D03*
G01*
X5302808Y6474510D03*
G01*
X5302808Y6394500D03*
D16*
G01*
X5412790Y6304508D03*
G01*
X5492800Y6304508D03*
G01*
X5572810Y6304508D03*
G01*
X5652795Y6304508D03*
G01*
X5732805Y6304508D03*
G01*
X5812790Y6304508D03*
G01*
X5892800Y6304508D03*
G01*
X5972809Y6304508D03*
G01*
X6052794Y6304508D03*
G01*
X6132804Y6304508D03*
G01*
X6212789Y6304508D03*
G01*
X6292799Y6304508D03*
G01*
X6372809Y6304508D03*
D15*
G01*
X6482791Y6394500D03*
G01*
X6482791Y6474510D03*
G01*
X6482791Y6554495D03*
G01*
X6482791Y6634505D03*
G01*
X6482791Y6714489D03*
G01*
X6482791Y6794500D03*
G01*
X6482791Y6874510D03*
G01*
X6482791Y6954494D03*
G01*
X6482791Y7034504D03*
G01*
X6482791Y7114489D03*
G01*
X6482791Y7194499D03*
D16*
G01*
X6372809Y7284491D03*
G01*
X6292799Y7284491D03*
G01*
X6212789Y7284491D03*
G01*
X6132804Y7284491D03*
G01*
X6052794Y7284491D03*
G01*
X5972809Y7284491D03*
G01*
X5892800Y7284491D03*
G01*
X5812790Y7284491D03*
G01*
X5732805Y7284491D03*
G01*
X5652795Y7284491D03*
G01*
X5572810Y7284491D03*
G01*
X5492800Y7284491D03*
G01*
X5412790Y7284491D03*
D17*
G01*
X6487795Y7289495D03*
G01*
X6487795Y6299504D03*
G01*
X5297804Y6299504D03*
G01*
X5297804Y7289495D03*
D18*
G01*
X5695287Y6991995D03*
D19*
G01*
X6090284Y6596989D03*
G01*
X5892800Y6596989D03*
G01*
X5695289Y6596989D03*
G01*
X5695289Y6794500D03*
G01*
X5892800Y6991985D03*
G01*
X6090284Y6991985D03*
G01*
X6090284Y6794500D03*
G01*
X5892800Y6794500D03*
D20*
G01*
X4731207Y7068007D03*
G01*
X4311192Y7068007D03*
G01*
X4731207Y7282992D03*
G01*
X4311192Y7282992D03*
D21*
G01*
X5898083Y3967276D03*
G01*
X5898083Y4387291D03*
G01*
X6113068Y3967276D03*
G01*
X6113068Y4387291D03*
D22*
G01*
X4811776Y6525908D03*
D23*
G01*
X4811775Y6375247D03*
D24*
G01*
X6842900Y6260084D03*
G01*
X6692251Y6260084D03*
D22*
G01*
X4633976Y6426059D03*
D23*
G01*
X4633975Y6576720D03*
D25*
G01*
X4291951Y6907784D03*
G01*
X4442600Y6907784D03*
G01*
X4291951Y6729984D03*
G01*
X4442600Y6729984D03*
D24*
G01*
X6361824Y4584700D03*
G01*
X6211175Y4584700D03*
D22*
G01*
X5664200Y4761624D03*
D23*
G01*
X5664200Y4610963D03*
D24*
G01*
X4571124Y4406900D03*
G01*
X4420475Y4406900D03*
D22*
G01*
X4494276Y5130659D03*
D23*
G01*
X4494275Y5281320D03*
D26*
G01*
X4591972Y4913884D03*
G01*
X4421969Y4913884D03*
D27*
G01*
X5241975Y5383784D03*
G01*
X4914976Y5383784D03*
D28*
G01*
X5308282Y4697984D03*
G01*
X5458269Y4697984D03*
G01*
X4975669Y4799584D03*
G01*
X4825682Y4799584D03*
G01*
X4975669Y4634484D03*
G01*
X4825682Y4634484D03*
D29*
G01*
X6863689Y4940300D03*
G01*
X6623710Y4940300D03*
D30*
G01*
X6839102Y5156200D03*
G01*
X6699097Y5156200D03*
D31*
G01*
X4900675Y7180986D03*
G01*
X4900675Y7040981D03*
G01*
X5103875Y7180986D03*
G01*
X5103875Y7040981D03*
D30*
G01*
X4297273Y6552184D03*
G01*
X4437278Y6552184D03*
D31*
G01*
X4633975Y6901586D03*
G01*
X4633975Y6761581D03*
D30*
G01*
X6216497Y4813300D03*
G01*
X6356502Y4813300D03*
D31*
G01*
X5283200Y5022697D03*
G01*
X5283200Y5162702D03*
D30*
G01*
X5073802Y5080000D03*
G01*
X4933797Y5080000D03*
G01*
X4373473Y4697984D03*
G01*
X4513478Y4697984D03*
D31*
G01*
X4318000Y5264302D03*
G01*
X4318000Y5124297D03*
G01*
X5027675Y5618581D03*
G01*
X5027675Y5758586D03*
G01*
X4722875Y5275986D03*
G01*
X4722875Y5135981D03*
D32*
G01*
X5359400Y5829300D03*
G01*
X5613400Y5829300D03*
D33*
G01*
X5625287Y3942580D03*
D34*
G01*
X5625287Y4360562D03*
G01*
X4760264Y4360562D03*
D33*
G01*
X4760264Y3942580D03*
D32*
G01*
X5854700Y5181600D03*
G01*
X5600700Y5181600D03*
D35*
G01*
X6286500Y5929807D03*
G01*
X5103875Y6946900D03*
G01*
X4900675Y6946900D03*
G01*
X4437278Y6464300D03*
G01*
X5027675Y5867400D03*
G01*
X4303902Y5765800D03*
G01*
X4722875Y4927600D03*
G01*
X4291075Y5041900D03*
G01*
X4513478Y4597400D03*
G01*
X6464300Y4813300D03*
G01*
X6623710Y5080812D03*
G01*
X4724400Y6761581D03*
D36*
G01*
X4987061Y4325162D03*
G01*
X6396736Y6463411D03*
G01*
X5160746Y5066868D03*
G01*
X6772986Y5762117D03*
G01*
X6152794Y6477050D03*
G01*
X6628155Y5709310D03*
G01*
X5391911Y6900926D03*
G01*
X6257645Y6410705D03*
G01*
X6264097Y4906137D03*
G01*
X6609003Y6432169D03*
G01*
X5972809Y6423990D03*
G01*
X6959600Y6239738D03*
G01*
X5732805Y6391681D03*
G01*
X5447791Y4558461D03*
G01*
X4967782Y4558461D03*
D35*
G01*
X6736968Y6554495D03*
G01*
X6541368Y5236540D03*
G01*
X5384800Y7188200D03*
G01*
X5092700Y4546600D03*
G01*
X4584700Y4267200D03*
G01*
X6388100Y6172200D03*
G01*
X6972300Y5669787D03*
G01*
X6667500Y5384800D03*
M02*
