M48
INCH,LZ
;FILE_FORMAT=2:4
;TYPE=PLATED
;Layer: PTH_Through
;EasyEDA v6.5.44, 2024-08-04 19:31:39
;8096e950b96f4993ae864095ad5b81d7,d882a8cb847549dbb05e31b2b695811d,10
;Gerber Generator version 0.2
;Holesize 1 = 0.0120 inch
T01C0.0120
;Holesize 2 = 0.0320 inch
T02C0.0320
;Holesize 3 = 0.0350 inch
T03C0.0350
%
G05
G90
T01
X007050Y023700
X008500Y022450
X006050Y023450
X003900Y030850
X011950Y022900
X007350Y027300
X005300Y031900
X005300Y032250
X003950Y033350
X008450Y025100
X009650Y025050
X008100Y030500
X008800Y029450
X006300Y029050
X005300Y022950
X009150Y031400
X009050Y030550
X010050Y030900
X010100Y029031
X006300Y025000
X010100Y032750
X007700Y025500
X007700Y024000
X009800Y024000
X008900Y024950
X010100Y022993
X009050Y022000
X010000Y032000
X012100Y030100
X009350Y029350
X010950Y023447
X011200Y027300
X006150Y026250
X003900Y023150
X009350Y027550
X007350Y026850
T02
X009653Y021058G85X009653Y021294
X009653Y022664G85X009653Y022979
X006247Y022664G85X006247Y022979
X006247Y021058G85X006247Y021294
T03
X003950Y024156
X003950Y024944
X004350Y027694
X004350Y026906
X011994Y033150
X011206Y033150
M30
