G04 Layer: TopSolderMaskLayer*
G04 EasyEDA v6.5.44, 2024-08-01 17:58:32*
G04 bf16dfa8b14249528ce45edaced80a03,d882a8cb847549dbb05e31b2b695811d,10*
G04 Gerber Generator version 0.2*
G04 Scale: 100 percent, Rotated: No, Reflected: No *
G04 Dimensions in millimeters *
G04 leading zeros omitted , absolute positions ,4 integer and 5 decimal *
%FSLAX45Y45*%
%MOMM*%

%AMMACRO1*4,1,8,-0.9211,-0.9508,-0.9508,-0.921,-0.9508,0.9211,-0.9211,0.9508,0.921,0.9508,0.9508,0.9211,0.9508,-0.921,0.921,-0.9508,-0.9211,-0.9508,0*%
%AMMACRO2*4,1,8,-0.1711,-0.7008,-0.2008,-0.671,-0.2008,0.6711,-0.1711,0.7008,0.171,0.7008,0.2008,0.6711,0.2008,-0.671,0.171,-0.7008,-0.1711,-0.7008,0*%
%AMMACRO3*4,1,8,-0.1711,-0.7008,-0.2008,-0.671,-0.2008,0.671,-0.1711,0.7008,0.171,0.7008,0.2008,0.671,0.2008,-0.671,0.171,-0.7008,-0.1711,-0.7008,0*%
%AMMACRO4*4,1,8,-0.5711,-1.3008,-0.6008,-1.271,-0.6008,1.2711,-0.5711,1.3008,0.571,1.3008,0.6008,1.2711,0.6008,-1.271,0.571,-1.3008,-0.5711,-1.3008,0*%
%AMMACRO5*4,1,8,-1.8211,-1.2208,-1.8508,-1.191,-1.8508,1.1911,-1.8211,1.2208,1.821,1.2208,1.8508,1.1911,1.8508,-1.191,1.821,-1.2208,-1.8211,-1.2208,0*%
%AMMACRO6*4,1,8,-0.4207,-0.25,-0.45,-0.2207,-0.45,0.2207,-0.4207,0.25,0.4207,0.25,0.45,0.2207,0.45,-0.2207,0.4207,-0.25,-0.4207,-0.25,0*%
%AMMACRO7*4,1,8,-0.2207,-0.45,-0.25,-0.4207,-0.25,0.4207,-0.2207,0.45,0.2207,0.45,0.25,0.4207,0.25,-0.4207,0.2207,-0.45,-0.2207,-0.45,0*%
%AMMACRO8*4,1,8,-0.3707,-0.4,-0.4,-0.3707,-0.4,0.3707,-0.3707,0.4,0.3707,0.4,0.4,0.3707,0.4,-0.3707,0.3707,-0.4,-0.3707,-0.4,0*%
%AMMACRO9*4,1,8,-0.7457,-0.775,-0.775,-0.7457,-0.775,0.7457,-0.7457,0.775,0.7457,0.775,0.775,0.7457,0.775,-0.7457,0.7457,-0.775,-0.7457,-0.775,0*%
%AMMACRO10*4,1,8,-0.5461,-0.4008,-0.5758,-0.371,-0.5758,0.3711,-0.5461,0.4008,0.546,0.4008,0.5758,0.3711,0.5758,-0.371,0.546,-0.4008,-0.5461,-0.4008,0*%
%AMMACRO11*4,1,8,-0.3711,-0.5758,-0.4008,-0.546,-0.4008,0.5461,-0.3711,0.5758,0.371,0.5758,0.4008,0.5461,0.4008,-0.546,0.371,-0.5758,-0.3711,-0.5758,0*%
%AMMACRO12*4,1,8,-0.4531,-0.454,-0.4828,-0.4243,-0.4828,0.4243,-0.4531,0.454,0.453,0.454,0.4828,0.4243,0.4828,-0.4243,0.453,-0.454,-0.4531,-0.454,0*%
%AMMACRO13*4,1,8,-0.4243,-0.4828,-0.454,-0.453,-0.454,0.4531,-0.4243,0.4828,0.4243,0.4828,0.454,0.4531,0.454,-0.453,0.4243,-0.4828,-0.4243,-0.4828,0*%
%AMMACRO14*4,1,8,-0.471,-0.5508,-0.5008,-0.521,-0.5008,0.5211,-0.471,0.5508,0.471,0.5508,0.5008,0.5211,0.5008,-0.521,0.471,-0.5508,-0.471,-0.5508,0*%
%AMMACRO15*4,1,8,-0.4761,-0.6608,-0.5058,-0.631,-0.5058,0.6311,-0.4761,0.6608,0.476,0.6608,0.5058,0.6311,0.5058,-0.631,0.476,-0.6608,-0.4761,-0.6608,0*%
%AMMACRO16*4,1,8,-0.3211,-0.2508,-0.3508,-0.221,-0.3508,0.2211,-0.3211,0.2508,0.321,0.2508,0.3508,0.2211,0.3508,-0.221,0.321,-0.2508,-0.3211,-0.2508,0*%
%AMMACRO17*4,1,8,-0.7711,-0.7303,-0.8008,-0.7005,-0.8008,0.7005,-0.7711,0.7303,0.771,0.7303,0.8008,0.7005,0.8008,-0.7005,0.771,-0.7303,-0.7711,-0.7303,0*%
%AMMACRO18*4,1,8,-0.4211,-0.5008,-0.4508,-0.471,-0.4508,0.4711,-0.4211,0.5008,0.421,0.5008,0.4508,0.4711,0.4508,-0.471,0.421,-0.5008,-0.4211,-0.5008,0*%
%AMMACRO19*4,1,8,-0.4711,-0.4508,-0.5008,-0.421,-0.5008,0.4211,-0.4711,0.4508,0.471,0.4508,0.5008,0.4211,0.5008,-0.421,0.471,-0.4508,-0.4711,-0.4508,0*%
%ADD10MACRO1*%
%ADD11MACRO2*%
%ADD12MACRO3*%
%ADD13O,1.3015976000000002X1.9015964*%
%ADD14O,1.3015976000000002X2.1015960000000002*%
%ADD15MACRO4*%
%ADD16MACRO5*%
%ADD17O,1.4256004000000002X0.40960040000000003*%
%ADD18MACRO6*%
%ADD19MACRO7*%
%ADD20MACRO8*%
%ADD21MACRO9*%
%ADD22MACRO10*%
%ADD23MACRO11*%
%ADD24MACRO12*%
%ADD25MACRO13*%
%ADD26MACRO14*%
%ADD27MACRO15*%
%ADD28MACRO16*%
%ADD29MACRO17*%
%ADD30MACRO18*%
%ADD31MACRO19*%
%ADD32C,0.0148*%

%LPD*%
D10*
G01*
X5359400Y5829300D03*
G01*
X5613400Y5829300D03*
D11*
G01*
X5017771Y4437402D03*
G01*
X5067783Y4437402D03*
G01*
X5117771Y4437405D03*
G01*
X5167783Y4437402D03*
G01*
X5217770Y4437405D03*
G01*
X5267783Y4437402D03*
G01*
X5317745Y4437402D03*
G01*
X5367783Y4437402D03*
G01*
X4857781Y4437390D03*
G01*
X4887779Y4437405D03*
D12*
G01*
X4937782Y4437390D03*
G01*
X4967777Y4437392D03*
G01*
X5417774Y4437390D03*
G01*
X5447786Y4437392D03*
G01*
X5497776Y4437407D03*
G01*
X5527776Y4437407D03*
D13*
G01*
X5625287Y3942580D03*
D14*
G01*
X5625287Y4360562D03*
G01*
X4760264Y4360562D03*
D13*
G01*
X4760264Y3942580D03*
D15*
G01*
X4303903Y5557706D03*
G01*
X4533900Y5557706D03*
G01*
X4763896Y5557706D03*
D16*
G01*
X4533900Y6151702D03*
D17*
G01*
X6171590Y6059804D03*
G01*
X6171590Y5994806D03*
G01*
X6171590Y5929807D03*
G01*
X6171590Y5864809D03*
G01*
X6171590Y5799810D03*
G01*
X6171590Y5734786D03*
G01*
X6171590Y5669787D03*
G01*
X6171590Y5604789D03*
G01*
X6171590Y5539790D03*
G01*
X6171590Y5474792D03*
G01*
X6171590Y5409793D03*
G01*
X6171590Y5344795D03*
G01*
X6884009Y6059804D03*
G01*
X6884009Y5994806D03*
G01*
X6884009Y5929807D03*
G01*
X6884009Y5864809D03*
G01*
X6884009Y5799810D03*
G01*
X6884009Y5734786D03*
G01*
X6884009Y5669787D03*
G01*
X6884009Y5604789D03*
G01*
X6884009Y5539790D03*
G01*
X6884009Y5474792D03*
G01*
X6884009Y5409793D03*
G01*
X6884009Y5344795D03*
D18*
G01*
X5302801Y7194499D03*
G01*
X5302801Y7114499D03*
G01*
X5302801Y7034499D03*
G01*
X5302801Y6954499D03*
G01*
X5302801Y6874499D03*
G01*
X5302801Y6794500D03*
G01*
X5302801Y6714500D03*
G01*
X5302801Y6634500D03*
G01*
X5302801Y6554500D03*
G01*
X5302801Y6474500D03*
G01*
X5302801Y6394500D03*
D19*
G01*
X5412800Y6304500D03*
G01*
X5492800Y6304500D03*
G01*
X5572800Y6304500D03*
G01*
X5652800Y6304500D03*
G01*
X5732800Y6304500D03*
G01*
X5812800Y6304500D03*
G01*
X5892800Y6304500D03*
G01*
X5972799Y6304500D03*
G01*
X6052799Y6304500D03*
G01*
X6132799Y6304500D03*
G01*
X6212799Y6304500D03*
G01*
X6292799Y6304500D03*
G01*
X6372799Y6304500D03*
D18*
G01*
X6482798Y6394500D03*
G01*
X6482798Y6474500D03*
G01*
X6482798Y6554500D03*
G01*
X6482798Y6634500D03*
G01*
X6482798Y6714500D03*
G01*
X6482798Y6794500D03*
G01*
X6482798Y6874499D03*
G01*
X6482798Y6954499D03*
G01*
X6482798Y7034499D03*
G01*
X6482798Y7114499D03*
G01*
X6482798Y7194499D03*
D19*
G01*
X6372799Y7284499D03*
G01*
X6292799Y7284499D03*
G01*
X6212799Y7284499D03*
G01*
X6132799Y7284499D03*
G01*
X6052799Y7284499D03*
G01*
X5972799Y7284499D03*
G01*
X5892800Y7284499D03*
G01*
X5812800Y7284499D03*
G01*
X5732800Y7284499D03*
G01*
X5652800Y7284499D03*
G01*
X5572800Y7284499D03*
G01*
X5492800Y7284499D03*
G01*
X5412800Y7284499D03*
D20*
G01*
X6487800Y7289500D03*
G01*
X6487800Y6299499D03*
G01*
X5297799Y6299499D03*
G01*
X5297799Y7289500D03*
G36*
X5622787Y6914494D02*
G01*
X5622297Y6914517D01*
X5621812Y6914591D01*
X5621334Y6914710D01*
X5620872Y6914875D01*
X5620430Y6915083D01*
X5620009Y6915337D01*
X5619615Y6915630D01*
X5619252Y6915960D01*
X5618921Y6916323D01*
X5618629Y6916717D01*
X5618375Y6917138D01*
X5618167Y6917580D01*
X5618002Y6918043D01*
X5617883Y6918520D01*
X5617809Y6919005D01*
X5617786Y6919495D01*
X5617786Y7004494D01*
X5617817Y7005053D01*
X5617911Y7005607D01*
X5618065Y7006145D01*
X5618281Y7006663D01*
X5618553Y7007156D01*
X5618878Y7007613D01*
X5619252Y7008030D01*
X5679252Y7068030D01*
X5679668Y7068403D01*
X5680125Y7068728D01*
X5680618Y7069000D01*
X5681136Y7069216D01*
X5681675Y7069371D01*
X5682228Y7069465D01*
X5682787Y7069495D01*
X5767786Y7069495D01*
X5768276Y7069472D01*
X5768761Y7069399D01*
X5769239Y7069279D01*
X5769701Y7069114D01*
X5770143Y7068906D01*
X5770565Y7068652D01*
X5770958Y7068360D01*
X5771321Y7068030D01*
X5771652Y7067666D01*
X5771944Y7067273D01*
X5772198Y7066851D01*
X5772406Y7066409D01*
X5772571Y7065947D01*
X5772691Y7065469D01*
X5772764Y7064984D01*
X5772787Y7064494D01*
X5772787Y6919495D01*
X5772764Y6919005D01*
X5772691Y6918520D01*
X5772571Y6918043D01*
X5772406Y6917580D01*
X5772198Y6917138D01*
X5771944Y6916717D01*
X5771652Y6916323D01*
X5771321Y6915960D01*
X5770958Y6915630D01*
X5770565Y6915337D01*
X5770143Y6915083D01*
X5769701Y6914875D01*
X5769239Y6914710D01*
X5768761Y6914591D01*
X5768276Y6914517D01*
X5767786Y6914494D01*
G37*
D21*
G01*
X6090287Y6596994D03*
G01*
X5892787Y6596994D03*
G01*
X5695287Y6596994D03*
G01*
X5695287Y6794494D03*
G01*
X5892787Y6991995D03*
G01*
X6090287Y6991995D03*
G01*
X6090287Y6794494D03*
G01*
X5892787Y6794494D03*
D22*
G01*
X4731205Y7068007D03*
G01*
X4311191Y7068007D03*
G01*
X4731205Y7282992D03*
G01*
X4311191Y7282992D03*
D23*
G01*
X5898083Y3967278D03*
G01*
X5898083Y4387292D03*
G01*
X6113068Y3967278D03*
G01*
X6113068Y4387292D03*
D24*
G01*
X4811776Y6525908D03*
G01*
X4811776Y6375259D03*
D25*
G01*
X6842900Y6260084D03*
G01*
X6692251Y6260084D03*
D24*
G01*
X4633976Y6426059D03*
G01*
X4633976Y6576708D03*
D25*
G01*
X4291951Y6907784D03*
G01*
X4442600Y6907784D03*
G01*
X4291951Y6729984D03*
G01*
X4442600Y6729984D03*
G01*
X6361824Y4584700D03*
G01*
X6211175Y4584700D03*
D24*
G01*
X5664200Y4761624D03*
G01*
X5664200Y4610975D03*
D25*
G01*
X4571124Y4406900D03*
G01*
X4420475Y4406900D03*
D24*
G01*
X4494276Y5130659D03*
G01*
X4494276Y5281308D03*
D26*
G01*
X4591966Y4913883D03*
G01*
X4421967Y4913883D03*
D10*
G01*
X5854700Y5181600D03*
G01*
X5600700Y5181600D03*
D27*
G01*
X5241987Y5383784D03*
G01*
X4914964Y5383784D03*
D28*
G01*
X5308282Y4697984D03*
G01*
X5458269Y4697984D03*
G01*
X4975669Y4799584D03*
G01*
X4825682Y4799584D03*
G01*
X4975669Y4634484D03*
G01*
X4825682Y4634484D03*
D29*
G01*
X6863699Y4940300D03*
G01*
X6623701Y4940300D03*
D30*
G01*
X6839099Y5156200D03*
G01*
X6699100Y5156200D03*
D31*
G01*
X4900676Y7180983D03*
G01*
X4900676Y7040984D03*
G01*
X5103876Y7180983D03*
G01*
X5103876Y7040984D03*
D30*
G01*
X4297276Y6552184D03*
G01*
X4437275Y6552184D03*
D31*
G01*
X4633976Y6901583D03*
G01*
X4633976Y6761584D03*
D30*
G01*
X6216500Y4813300D03*
G01*
X6356499Y4813300D03*
D31*
G01*
X5283200Y5022700D03*
G01*
X5283200Y5162699D03*
D30*
G01*
X5073799Y5080000D03*
G01*
X4933800Y5080000D03*
G01*
X4373476Y4697984D03*
G01*
X4513475Y4697984D03*
D31*
G01*
X4318000Y5264299D03*
G01*
X4318000Y5124300D03*
G01*
X5027676Y5618584D03*
G01*
X5027676Y5758583D03*
G01*
X4722876Y5275983D03*
G01*
X4722876Y5135984D03*
M02*
