G04 Layer: BottomLayer*
G04 EasyEDA v6.5.44, 2024-08-01 17:58:32*
G04 bf16dfa8b14249528ce45edaced80a03,d882a8cb847549dbb05e31b2b695811d,10*
G04 Gerber Generator version 0.2*
G04 Scale: 100 percent, Rotated: No, Reflected: No *
G04 Dimensions in millimeters *
G04 leading zeros omitted , absolute positions ,4 integer and 5 decimal *
%FSLAX45Y45*%
%MOMM*%

%ADD10C,0.2540*%
%ADD11R,1.8000X1.8000*%
%ADD12O,1.1999976X1.7999964*%
%ADD13O,1.1999976X1.9999959999999999*%
%ADD14C,0.6200*%
%ADD15C,0.6096*%

%LPD*%
D10*
X6972300Y5669787D02*
G01*
X6952488Y5669787D01*
X6667500Y5384800D01*
X6286500Y5929807D02*
G01*
X6286500Y6070600D01*
X6388100Y6172200D01*
X5092700Y4546600D02*
G01*
X5092700Y4203700D01*
X4648200Y4203700D01*
X4584700Y4267200D01*
X4978400Y4559297D02*
G01*
X5016500Y4572000D01*
X5016500Y4584700D01*
X5041900Y4610100D01*
X5041900Y4648200D01*
X5358053Y4648200D01*
X5447791Y4558461D01*
X4513478Y4597400D02*
G01*
X4513478Y4718202D01*
X4722875Y4927600D01*
X4291075Y5041900D02*
G01*
X4608575Y5041900D01*
X4722875Y4927600D01*
X4303902Y5765800D02*
G01*
X4303902Y5054727D01*
X4291075Y5041900D01*
X4303902Y5765800D02*
G01*
X4303902Y6330924D01*
X4437278Y6464300D01*
X5027675Y5867400D02*
G01*
X4405502Y5867400D01*
X4303902Y5765800D01*
X4437278Y6464300D02*
G01*
X4437278Y6474460D01*
X4724400Y6761581D01*
X4900675Y6946900D02*
G01*
X4900675Y6937857D01*
X4724400Y6761581D01*
X5103875Y6946900D02*
G01*
X5270500Y7112000D01*
X5384800Y7112000D01*
X5384800Y7188200D01*
X4900675Y6946900D02*
G01*
X5103875Y6946900D01*
X6541368Y5236540D02*
G01*
X6541368Y5236540D01*
X6604000Y5295900D01*
X6985000Y5295900D01*
X6985000Y5308600D01*
X7010400Y5334000D01*
X7010400Y5359400D01*
X7023100Y5372100D01*
X7023100Y6286500D01*
X7004964Y6286500D01*
X6736968Y6554495D01*
X6959600Y6239738D02*
G01*
X6231763Y6967575D01*
X5356148Y6967575D01*
X5323433Y6934860D01*
X5323433Y6801053D01*
X5732805Y6391681D01*
X6609003Y6432169D02*
G01*
X6609003Y6461074D01*
X6423634Y6646443D01*
X6195263Y6646443D01*
X5972809Y6423990D01*
X5625287Y3942587D02*
G01*
X5625287Y4360570D01*
X4760264Y3942587D02*
G01*
X5625287Y3942587D01*
X6257645Y6410705D02*
G01*
X6368973Y6522034D01*
X6422009Y6522034D01*
X6467856Y6476187D01*
X6467856Y5109895D01*
X6264097Y4906137D01*
X6628155Y5709310D02*
G01*
X6670344Y5751499D01*
X6670344Y6457543D01*
X6226962Y6900926D01*
X5391911Y6900926D01*
X6152794Y6477050D02*
G01*
X6152794Y6538874D01*
X6219494Y6605574D01*
X6406692Y6605574D01*
X6515074Y6497193D01*
X6515074Y5730316D01*
X6634759Y5610631D01*
X6803796Y5610631D01*
X6828256Y5635091D01*
X6828256Y5706846D01*
X6772986Y5762117D01*
X6396736Y6463411D02*
G01*
X6396736Y6302857D01*
X5160746Y5066868D01*
X5160746Y5066868D02*
G01*
X4902657Y4808778D01*
X4902657Y4409567D01*
X4987061Y4325162D01*
D11*
G01*
X5359400Y5829300D03*
G01*
X5613400Y5829300D03*
D12*
G01*
X5625287Y3942580D03*
D13*
G01*
X5625287Y4360562D03*
G01*
X4760264Y4360562D03*
D12*
G01*
X4760264Y3942580D03*
D11*
G01*
X5854700Y5181600D03*
G01*
X5600700Y5181600D03*
D14*
G01*
X6286500Y5929807D03*
G01*
X5103875Y6946900D03*
G01*
X4900675Y6946900D03*
G01*
X4437278Y6464300D03*
G01*
X5027675Y5867400D03*
G01*
X4303902Y5765800D03*
G01*
X4722875Y4927600D03*
G01*
X4291075Y5041900D03*
G01*
X4513478Y4597400D03*
G01*
X6464300Y4813300D03*
G01*
X6623710Y5080812D03*
G01*
X4724400Y6761581D03*
D15*
G01*
X4987061Y4325162D03*
G01*
X6396736Y6463411D03*
G01*
X5160746Y5066868D03*
G01*
X6772986Y5762117D03*
G01*
X6152794Y6477050D03*
G01*
X6628155Y5709310D03*
G01*
X5391911Y6900926D03*
G01*
X6257645Y6410705D03*
G01*
X6264097Y4906137D03*
G01*
X6609003Y6432169D03*
G01*
X5972809Y6423990D03*
G01*
X6959600Y6239738D03*
G01*
X5732805Y6391681D03*
G01*
X5447791Y4558461D03*
G01*
X4967782Y4558461D03*
D14*
G01*
X6736968Y6554495D03*
G01*
X6541368Y5236540D03*
G01*
X5384800Y7188200D03*
G01*
X5092700Y4546600D03*
G01*
X4584700Y4267200D03*
G01*
X6388100Y6172200D03*
G01*
X6972300Y5669787D03*
G01*
X6667500Y5384800D03*
M02*
