G04 Layer: TopSolderMaskLayer*
G04 EasyEDA v6.5.44, 2024-08-04 19:31:39*
G04 8096e950b96f4993ae864095ad5b81d7,d882a8cb847549dbb05e31b2b695811d,10*
G04 Gerber Generator version 0.2*
G04 Scale: 100 percent, Rotated: No, Reflected: No *
G04 Dimensions in inches *
G04 leading zeros omitted , absolute positions ,3 integer and 6 decimal *
%FSLAX36Y36*%
%MOIN*%

%AMMACRO1*4,1,8,-0.0166,-0.0197,-0.0177,-0.0185,-0.0177,0.0185,-0.0166,0.0197,0.0166,0.0197,0.0177,0.0185,0.0177,-0.0185,0.0166,-0.0197,-0.0166,-0.0197,0*%
%AMMACRO2*4,1,8,-0.0185,-0.0177,-0.0197,-0.0166,-0.0197,0.0166,-0.0185,0.0177,0.0185,0.0177,0.0197,0.0166,0.0197,-0.0166,0.0185,-0.0177,-0.0185,-0.0177,0*%
%AMMACRO3*4,1,8,-0.0276,-0.0315,-0.0288,-0.0304,-0.0288,0.0304,-0.0276,0.0315,0.0276,0.0315,0.0288,0.0304,0.0288,-0.0304,0.0276,-0.0315,-0.0276,-0.0315,0*%
%AMMACRO4*4,1,8,-0.0087,-0.0138,-0.0099,-0.0126,-0.0099,0.0126,-0.0087,0.0138,0.0087,0.0138,0.0099,0.0126,0.0099,-0.0126,0.0087,-0.0138,-0.0087,-0.0138,0*%
%AMMACRO5*4,1,8,-0.0248,-0.0199,-0.026,-0.0187,-0.026,0.0187,-0.0248,0.0199,0.0248,0.0199,0.026,0.0187,0.026,-0.0187,0.0248,-0.0199,-0.0248,-0.0199,0*%
%AMMACRO6*4,1,8,-0.0185,-0.0217,-0.0197,-0.0205,-0.0197,0.0205,-0.0185,0.0217,0.0185,0.0217,0.0197,0.0205,0.0197,-0.0205,0.0185,-0.0217,-0.0185,-0.0217,0*%
%AMMACRO7*4,1,8,-0.0178,-0.0179,-0.019,-0.0167,-0.019,0.0167,-0.0178,0.0179,0.0178,0.0179,0.019,0.0167,0.019,-0.0167,0.0178,-0.0179,-0.0178,-0.0179,0*%
%AMMACRO8*4,1,8,-0.0167,-0.019,-0.0179,-0.0178,-0.0179,0.0178,-0.0167,0.019,0.0167,0.019,0.0179,0.0178,0.0179,-0.0178,0.0167,-0.019,-0.0167,-0.019,0*%
%AMMACRO9*4,1,8,0.0167,-0.019,-0.0167,-0.019,-0.0179,-0.0178,-0.0179,0.0178,-0.0167,0.019,0.0167,0.019,0.0179,0.0178,0.0179,-0.0178,0.0167,-0.019,0*%
%AMMACRO10*4,1,8,-0.0215,-0.0158,-0.0227,-0.0146,-0.0227,0.0146,-0.0215,0.0158,0.0215,0.0158,0.0227,0.0146,0.0227,-0.0146,0.0215,-0.0158,-0.0215,-0.0158,0*%
%AMMACRO11*4,1,8,-0.0166,-0.0098,-0.0177,-0.0087,-0.0177,0.0087,-0.0166,0.0098,0.0166,0.0098,0.0177,0.0087,0.0177,-0.0087,0.0166,-0.0098,-0.0166,-0.0098,0*%
%AMMACRO12*4,1,8,-0.0087,-0.0177,-0.0098,-0.0166,-0.0098,0.0166,-0.0087,0.0177,0.0087,0.0177,0.0098,0.0166,0.0098,-0.0166,0.0087,-0.0177,-0.0087,-0.0177,0*%
%AMMACRO13*4,1,8,-0.0146,-0.0157,-0.0157,-0.0146,-0.0157,0.0146,-0.0146,0.0157,0.0146,0.0157,0.0157,0.0146,0.0157,-0.0146,0.0146,-0.0157,-0.0146,-0.0157,0*%
%AMMACRO14*4,1,8,-0.0294,-0.0305,-0.0305,-0.0294,-0.0305,0.0294,-0.0294,0.0305,0.0294,0.0305,0.0305,0.0294,0.0305,-0.0294,0.0294,-0.0305,-0.0294,-0.0305,0*%
%AMMACRO15*4,1,8,-0.0303,-0.0315,-0.0315,-0.0303,-0.0315,0.0303,-0.0303,0.0315,0.0303,0.0315,0.0315,0.0303,0.0315,-0.0303,0.0303,-0.0315,-0.0303,-0.0315,0*%
%AMMACRO16*4,1,8,-0.0057,-0.0158,-0.0069,-0.0146,-0.0069,0.0146,-0.0057,0.0158,0.0057,0.0158,0.0069,0.0146,0.0069,-0.0146,0.0057,-0.0158,-0.0057,-0.0158,0*%
%AMMACRO17*4,1,8,-0.0441,-0.0217,-0.0453,-0.0205,-0.0453,0.0205,-0.0441,0.0217,0.0441,0.0217,0.0453,0.0205,0.0453,-0.0205,0.0441,-0.0217,-0.0441,-0.0217,0*%
%AMMACRO18*4,1,8,-0.0067,-0.0276,-0.0079,-0.0264,-0.0079,0.0264,-0.0067,0.0276,0.0067,0.0276,0.0079,0.0264,0.0079,-0.0264,0.0067,-0.0276,-0.0067,-0.0276,0*%
%ADD10MACRO1*%
%ADD11MACRO2*%
%ADD12MACRO3*%
%ADD13MACRO4*%
%ADD14MACRO5*%
%ADD15MACRO6*%
%ADD16MACRO7*%
%ADD17MACRO8*%
%ADD18MACRO9*%
%ADD19MACRO10*%
%ADD20MACRO11*%
%ADD21MACRO12*%
%ADD22MACRO13*%
%ADD23MACRO14*%
%ADD24O,0.056126X0.016126*%
%ADD25MACRO15*%
%ADD26C,0.0630*%
%ADD27MACRO16*%
%ADD28MACRO17*%
%ADD29MACRO18*%
%ADD30O,0.051244000000000005X0.074866*%
%ADD31O,0.051244000000000005X0.08274000000000001*%
%ADD32O,0.0159X0.08274000000000001*%

%LPD*%
D10*
G01*
X802559Y2495000D03*
G01*
X747441Y2495000D03*
G01*
X937559Y2455000D03*
G01*
X882440Y2455000D03*
G01*
X422558Y2270000D03*
G01*
X367441Y2270000D03*
G01*
X1117559Y2270000D03*
G01*
X1062440Y2270000D03*
D11*
G01*
X410000Y3032558D03*
G01*
X410000Y2977441D03*
D10*
G01*
X357441Y3275000D03*
G01*
X412558Y3275000D03*
G01*
X357441Y3200000D03*
G01*
X412558Y3200000D03*
D11*
G01*
X1055000Y2607558D03*
G01*
X1055000Y2552441D03*
G01*
X1010000Y2827558D03*
G01*
X1010000Y2772441D03*
D12*
G01*
X935000Y2592755D03*
G01*
X935000Y2687243D03*
D10*
G01*
X1097559Y3200000D03*
G01*
X1042440Y3200000D03*
G01*
X1097559Y3130000D03*
G01*
X1042440Y3130000D03*
D11*
G01*
X1180000Y2892558D03*
G01*
X1180000Y2837441D03*
D10*
G01*
X1212559Y2765000D03*
G01*
X1157440Y2765000D03*
G01*
X1212559Y2680000D03*
G01*
X1157440Y2680000D03*
D13*
G01*
X670000Y2390475D03*
G01*
X670000Y2449524D03*
G01*
X745000Y2375475D03*
G01*
X745000Y2434524D03*
G01*
X815000Y2375475D03*
G01*
X815000Y2434524D03*
D14*
G01*
X570000Y2380625D03*
G01*
X570000Y2509374D03*
D15*
G01*
X1086538Y2475000D03*
G01*
X1153467Y2475000D03*
D16*
G01*
X1040000Y2340344D03*
G01*
X1040000Y2399655D03*
D17*
G01*
X880344Y2375000D03*
G01*
X939655Y2375000D03*
D18*
G01*
X549655Y2250000D03*
D17*
G01*
X490344Y2250000D03*
G01*
X1204655Y2345000D03*
G01*
X1145344Y2345000D03*
G01*
X355344Y3130000D03*
G01*
X414655Y3130000D03*
G01*
X350344Y3380000D03*
G01*
X409655Y3380000D03*
G01*
X525344Y2905000D03*
G01*
X584655Y2905000D03*
G01*
X464655Y2900000D03*
G01*
X405344Y2900000D03*
G01*
X1109655Y2900000D03*
G01*
X1050344Y2900000D03*
D16*
G01*
X1085000Y2829655D03*
G01*
X1085000Y2770344D03*
D17*
G01*
X1074655Y2695000D03*
G01*
X1015344Y2695000D03*
G01*
X1140344Y2550000D03*
G01*
X1199655Y2550000D03*
D19*
G01*
X367320Y2187319D03*
G01*
X532680Y2187319D03*
G01*
X367320Y2102680D03*
G01*
X532680Y2102680D03*
G01*
X1057320Y2202319D03*
G01*
X1222680Y2202319D03*
G01*
X1057320Y2117680D03*
G01*
X1222680Y2117680D03*
D20*
G01*
X487717Y3347480D03*
G01*
X487717Y3315983D03*
G01*
X487717Y3284488D03*
G01*
X487717Y3252991D03*
G01*
X487717Y3221495D03*
G01*
X487717Y3190000D03*
G01*
X487717Y3158504D03*
G01*
X487717Y3127008D03*
G01*
X487717Y3095511D03*
G01*
X487717Y3064016D03*
G01*
X487717Y3032519D03*
D21*
G01*
X531023Y2997086D03*
G01*
X562519Y2997086D03*
G01*
X594016Y2997086D03*
G01*
X625511Y2997086D03*
G01*
X657008Y2997086D03*
G01*
X688504Y2997086D03*
G01*
X720000Y2997086D03*
G01*
X751495Y2997086D03*
G01*
X782991Y2997086D03*
G01*
X814488Y2997086D03*
G01*
X845983Y2997086D03*
G01*
X877480Y2997086D03*
G01*
X908976Y2997086D03*
D20*
G01*
X952283Y3032519D03*
G01*
X952283Y3064016D03*
G01*
X952283Y3095511D03*
G01*
X952283Y3127008D03*
G01*
X952283Y3158504D03*
G01*
X952283Y3190000D03*
G01*
X952283Y3221495D03*
G01*
X952283Y3252991D03*
G01*
X952283Y3284488D03*
G01*
X952283Y3315983D03*
G01*
X952283Y3347480D03*
D21*
G01*
X908976Y3382913D03*
G01*
X877480Y3382913D03*
G01*
X845983Y3382913D03*
G01*
X814488Y3382913D03*
G01*
X782991Y3382913D03*
G01*
X751495Y3382913D03*
G01*
X720000Y3382913D03*
G01*
X688504Y3382913D03*
G01*
X657008Y3382913D03*
G01*
X625511Y3382913D03*
G01*
X594016Y3382913D03*
G01*
X562519Y3382913D03*
G01*
X531023Y3382913D03*
D22*
G01*
X954252Y3384882D03*
G01*
X954252Y2995118D03*
G01*
X485747Y2995118D03*
G01*
X485747Y3384882D03*
G36*
X613695Y3237242D02*
G01*
X613503Y3237251D01*
X613312Y3237280D01*
X613123Y3237327D01*
X612941Y3237392D01*
X612768Y3237474D01*
X612602Y3237573D01*
X612447Y3237689D01*
X612303Y3237818D01*
X612174Y3237962D01*
X612058Y3238117D01*
X611959Y3238283D01*
X611876Y3238456D01*
X611811Y3238638D01*
X611765Y3238827D01*
X611736Y3239018D01*
X611727Y3239211D01*
X611727Y3272674D01*
X611738Y3272894D01*
X611775Y3273112D01*
X611837Y3273325D01*
X611921Y3273528D01*
X612029Y3273723D01*
X612157Y3273903D01*
X612303Y3274067D01*
X635925Y3297689D01*
X636089Y3297836D01*
X636269Y3297964D01*
X636464Y3298071D01*
X636667Y3298155D01*
X636880Y3298216D01*
X637098Y3298254D01*
X637318Y3298265D01*
X670781Y3298265D01*
X670974Y3298256D01*
X671165Y3298227D01*
X671354Y3298180D01*
X671536Y3298116D01*
X671709Y3298033D01*
X671876Y3297934D01*
X672031Y3297818D01*
X672174Y3297689D01*
X672303Y3297546D01*
X672418Y3297390D01*
X672519Y3297224D01*
X672600Y3297051D01*
X672665Y3296869D01*
X672712Y3296680D01*
X672741Y3296489D01*
X672750Y3296296D01*
X672750Y3239211D01*
X672741Y3239018D01*
X672712Y3238827D01*
X672665Y3238638D01*
X672600Y3238456D01*
X672519Y3238283D01*
X672418Y3238117D01*
X672303Y3237962D01*
X672174Y3237818D01*
X672031Y3237689D01*
X671876Y3237573D01*
X671709Y3237474D01*
X671536Y3237392D01*
X671354Y3237327D01*
X671165Y3237280D01*
X670974Y3237251D01*
X670781Y3237242D01*
G37*
D23*
G01*
X797750Y3112241D03*
G01*
X719994Y3112241D03*
G01*
X642238Y3112241D03*
G01*
X642238Y3189998D03*
G01*
X719994Y3267754D03*
G01*
X797750Y3267754D03*
G01*
X797750Y3189998D03*
G01*
X719994Y3189998D03*
D24*
G01*
X549760Y2835749D03*
G01*
X549760Y2810160D03*
G01*
X549760Y2784569D03*
G01*
X549760Y2758980D03*
G01*
X549760Y2733389D03*
G01*
X549760Y2707790D03*
G01*
X549760Y2682199D03*
G01*
X549760Y2656610D03*
G01*
X549760Y2631019D03*
G01*
X549760Y2605430D03*
G01*
X549760Y2579839D03*
G01*
X549760Y2554250D03*
G01*
X830240Y2835749D03*
G01*
X830240Y2810160D03*
G01*
X830240Y2784569D03*
G01*
X830240Y2758980D03*
G01*
X830240Y2733389D03*
G01*
X830240Y2707790D03*
G01*
X830240Y2682199D03*
G01*
X830240Y2656610D03*
G01*
X830240Y2631019D03*
G01*
X830240Y2605430D03*
G01*
X830240Y2579839D03*
G01*
X830240Y2554250D03*
D25*
G01*
X395000Y2415629D03*
D26*
G01*
X395000Y2494369D03*
D25*
G01*
X435000Y2769368D03*
D26*
G01*
X435000Y2690630D03*
D25*
G01*
X1199369Y3315000D03*
D26*
G01*
X1120630Y3315000D03*
D27*
G01*
X1045940Y2952910D03*
G01*
X1065630Y2952910D03*
G01*
X1085320Y2952910D03*
G01*
X1105000Y2952910D03*
G01*
X1124690Y2952910D03*
G01*
X1124690Y3067089D03*
G01*
X1105000Y3067089D03*
G01*
X1085320Y3067089D03*
G01*
X1065630Y3067089D03*
G01*
X1045940Y3067089D03*
G01*
X1164059Y2952910D03*
G01*
X1144369Y2952910D03*
G01*
X1164059Y3067089D03*
G01*
X1144369Y3067089D03*
G36*
X1018386Y2976898D02*
G01*
X1018190Y2976907D01*
X1017996Y2976936D01*
X1017804Y2976984D01*
X1017620Y2977049D01*
X1017443Y2977134D01*
X1017274Y2977235D01*
X1017116Y2977352D01*
X1016971Y2977483D01*
X1016840Y2977629D01*
X1016723Y2977786D01*
X1016621Y2977955D01*
X1016538Y2978132D01*
X1016472Y2978317D01*
X1016423Y2978508D01*
X1016396Y2978701D01*
X1016386Y2978897D01*
X1016386Y2986772D01*
X1016396Y2986968D01*
X1016423Y2987161D01*
X1016472Y2987352D01*
X1016538Y2987537D01*
X1016621Y2987714D01*
X1016723Y2987883D01*
X1016840Y2988040D01*
X1016971Y2988186D01*
X1017116Y2988317D01*
X1017274Y2988434D01*
X1017443Y2988535D01*
X1017620Y2988620D01*
X1017804Y2988685D01*
X1017996Y2988733D01*
X1018190Y2988762D01*
X1018386Y2988771D01*
X1046701Y2988771D01*
X1046701Y2995007D01*
X1018386Y2995007D01*
X1018190Y2995018D01*
X1017996Y2995046D01*
X1017804Y2995093D01*
X1017620Y2995160D01*
X1017443Y2995243D01*
X1017274Y2995345D01*
X1017116Y2995462D01*
X1016971Y2995594D01*
X1016840Y2995738D01*
X1016723Y2995897D01*
X1016621Y2996064D01*
X1016538Y2996242D01*
X1016472Y2996426D01*
X1016423Y2996617D01*
X1016396Y2996812D01*
X1016386Y2997008D01*
X1016386Y3004881D01*
X1016396Y3005077D01*
X1016423Y3005272D01*
X1016472Y3005462D01*
X1016538Y3005646D01*
X1016621Y3005825D01*
X1016723Y3005992D01*
X1016840Y3006151D01*
X1016971Y3006296D01*
X1017116Y3006428D01*
X1017274Y3006545D01*
X1017443Y3006646D01*
X1017620Y3006729D01*
X1017804Y3006795D01*
X1017996Y3006844D01*
X1018190Y3006871D01*
X1018386Y3006882D01*
X1046701Y3006882D01*
X1046701Y3013117D01*
X1018386Y3013117D01*
X1018190Y3013128D01*
X1017996Y3013155D01*
X1017804Y3013204D01*
X1017620Y3013270D01*
X1017443Y3013353D01*
X1017274Y3013454D01*
X1017116Y3013571D01*
X1016971Y3013703D01*
X1016840Y3013849D01*
X1016723Y3014007D01*
X1016621Y3014175D01*
X1016538Y3014353D01*
X1016472Y3014537D01*
X1016423Y3014728D01*
X1016396Y3014922D01*
X1016386Y3015118D01*
X1016386Y3022991D01*
X1016396Y3023188D01*
X1016423Y3023382D01*
X1016472Y3023573D01*
X1016538Y3023757D01*
X1016621Y3023935D01*
X1016723Y3024103D01*
X1016840Y3024261D01*
X1016971Y3024405D01*
X1017116Y3024537D01*
X1017274Y3024654D01*
X1017443Y3024756D01*
X1017620Y3024839D01*
X1017804Y3024906D01*
X1017996Y3024953D01*
X1018190Y3024982D01*
X1018386Y3024992D01*
X1046701Y3024992D01*
X1046701Y3031228D01*
X1018386Y3031228D01*
X1018190Y3031237D01*
X1017996Y3031266D01*
X1017804Y3031314D01*
X1017620Y3031379D01*
X1017443Y3031464D01*
X1017274Y3031565D01*
X1017116Y3031682D01*
X1016971Y3031813D01*
X1016840Y3031959D01*
X1016723Y3032116D01*
X1016621Y3032285D01*
X1016538Y3032462D01*
X1016472Y3032647D01*
X1016423Y3032838D01*
X1016396Y3033031D01*
X1016386Y3033227D01*
X1016386Y3041102D01*
X1016396Y3041298D01*
X1016423Y3041491D01*
X1016472Y3041682D01*
X1016538Y3041867D01*
X1016621Y3042044D01*
X1016723Y3042213D01*
X1016840Y3042370D01*
X1016971Y3042516D01*
X1017116Y3042647D01*
X1017274Y3042764D01*
X1017443Y3042865D01*
X1017620Y3042950D01*
X1017804Y3043015D01*
X1017996Y3043063D01*
X1018190Y3043092D01*
X1018386Y3043101D01*
X1191613Y3043101D01*
X1191809Y3043092D01*
X1192003Y3043063D01*
X1192195Y3043015D01*
X1192379Y3042950D01*
X1192556Y3042865D01*
X1192725Y3042764D01*
X1192883Y3042647D01*
X1193028Y3042516D01*
X1193159Y3042370D01*
X1193276Y3042213D01*
X1193378Y3042044D01*
X1193461Y3041867D01*
X1193527Y3041682D01*
X1193576Y3041491D01*
X1193603Y3041298D01*
X1193613Y3041102D01*
X1193613Y3033227D01*
X1193603Y3033031D01*
X1193576Y3032838D01*
X1193527Y3032647D01*
X1193461Y3032462D01*
X1193378Y3032285D01*
X1193276Y3032116D01*
X1193159Y3031959D01*
X1193028Y3031813D01*
X1192883Y3031682D01*
X1192725Y3031565D01*
X1192556Y3031464D01*
X1192379Y3031379D01*
X1192195Y3031314D01*
X1192003Y3031266D01*
X1191809Y3031237D01*
X1191613Y3031228D01*
X1163298Y3031228D01*
X1163298Y3024992D01*
X1191613Y3024992D01*
X1191809Y3024982D01*
X1192003Y3024953D01*
X1192195Y3024906D01*
X1192379Y3024839D01*
X1192556Y3024756D01*
X1192725Y3024654D01*
X1192883Y3024537D01*
X1193028Y3024405D01*
X1193159Y3024261D01*
X1193276Y3024103D01*
X1193378Y3023935D01*
X1193461Y3023757D01*
X1193527Y3023573D01*
X1193576Y3023382D01*
X1193603Y3023188D01*
X1193613Y3022991D01*
X1193613Y3015118D01*
X1193603Y3014922D01*
X1193576Y3014728D01*
X1193527Y3014537D01*
X1193461Y3014353D01*
X1193378Y3014175D01*
X1193276Y3014007D01*
X1193159Y3013849D01*
X1193028Y3013703D01*
X1192883Y3013571D01*
X1192725Y3013454D01*
X1192556Y3013353D01*
X1192379Y3013270D01*
X1192195Y3013204D01*
X1192003Y3013155D01*
X1191809Y3013128D01*
X1191613Y3013117D01*
X1163298Y3013117D01*
X1163298Y3006882D01*
X1191613Y3006882D01*
X1191809Y3006871D01*
X1192003Y3006844D01*
X1192195Y3006795D01*
X1192379Y3006729D01*
X1192556Y3006646D01*
X1192725Y3006545D01*
X1192883Y3006428D01*
X1193028Y3006296D01*
X1193159Y3006151D01*
X1193276Y3005992D01*
X1193378Y3005825D01*
X1193461Y3005646D01*
X1193527Y3005462D01*
X1193576Y3005272D01*
X1193603Y3005077D01*
X1193613Y3004881D01*
X1193613Y2997008D01*
X1193603Y2996812D01*
X1193576Y2996617D01*
X1193527Y2996426D01*
X1193461Y2996242D01*
X1193378Y2996064D01*
X1193276Y2995897D01*
X1193159Y2995738D01*
X1193028Y2995594D01*
X1192883Y2995462D01*
X1192725Y2995345D01*
X1192556Y2995243D01*
X1192379Y2995160D01*
X1192195Y2995093D01*
X1192003Y2995046D01*
X1191809Y2995018D01*
X1191613Y2995007D01*
X1163298Y2995007D01*
X1163298Y2988771D01*
X1191613Y2988771D01*
X1191809Y2988762D01*
X1192003Y2988733D01*
X1192195Y2988685D01*
X1192379Y2988620D01*
X1192556Y2988535D01*
X1192725Y2988434D01*
X1192883Y2988317D01*
X1193028Y2988186D01*
X1193159Y2988040D01*
X1193276Y2987883D01*
X1193378Y2987714D01*
X1193461Y2987537D01*
X1193527Y2987352D01*
X1193576Y2987161D01*
X1193603Y2986968D01*
X1193613Y2986772D01*
X1193613Y2978897D01*
X1193603Y2978701D01*
X1193576Y2978508D01*
X1193527Y2978317D01*
X1193461Y2978132D01*
X1193378Y2977955D01*
X1193276Y2977786D01*
X1193159Y2977629D01*
X1193028Y2977483D01*
X1192883Y2977352D01*
X1192725Y2977235D01*
X1192556Y2977134D01*
X1192379Y2977049D01*
X1192195Y2976984D01*
X1192003Y2976936D01*
X1191809Y2976907D01*
X1191613Y2976898D01*
G37*
D28*
G01*
X1220000Y3106692D03*
G01*
X1220000Y3193307D03*
D29*
G01*
X726100Y2312409D03*
G01*
X745790Y2312409D03*
G01*
X765470Y2312410D03*
G01*
X785160Y2312409D03*
G01*
X804840Y2312410D03*
G01*
X824530Y2312409D03*
G01*
X844200Y2312409D03*
G01*
X863900Y2312409D03*
G01*
X663112Y2312403D03*
G01*
X674922Y2312410D03*
G01*
X694609Y2312404D03*
G01*
X706418Y2312404D03*
G01*
X883582Y2312404D03*
G01*
X895398Y2312404D03*
G01*
X915079Y2312411D03*
G01*
X926889Y2312411D03*
D30*
G01*
X965280Y2117597D03*
D31*
G01*
X965280Y2282157D03*
G01*
X624720Y2282157D03*
D30*
G01*
X624720Y2117597D03*
M02*
