G04 Layer: TopSilkscreenLayer*
G04 EasyEDA v6.5.44, 2024-08-04 19:31:39*
G04 8096e950b96f4993ae864095ad5b81d7,d882a8cb847549dbb05e31b2b695811d,10*
G04 Gerber Generator version 0.2*
G04 Scale: 100 percent, Rotated: No, Reflected: No *
G04 Dimensions in inches *
G04 leading zeros omitted , absolute positions ,3 integer and 6 decimal *
%FSLAX36Y36*%
%MOIN*%

%ADD10C,0.0100*%
%ADD11C,0.0032*%
%ADD12C,0.0051*%
%ADD13C,0.0039*%
%ADD14C,0.0060*%
%ADD15C,0.0059*%
%ADD16C,0.0079*%
%ADD17C,0.0098*%
%ADD18C,0.0118*%
%ADD19C,0.0110*%

%LPD*%
G36*
X670000Y2420000D02*
G01*
X659000Y2411000D01*
X681000Y2411000D01*
G37*
G36*
X659000Y2429000D02*
G01*
X670000Y2420000D01*
X681000Y2429000D01*
G37*
G36*
X745000Y2405000D02*
G01*
X734000Y2396000D01*
X756000Y2396000D01*
G37*
G36*
X734000Y2414000D02*
G01*
X745000Y2405000D01*
X756000Y2414000D01*
G37*
G36*
X815000Y2405000D02*
G01*
X804000Y2396000D01*
X826000Y2396000D01*
G37*
G36*
X804000Y2414000D02*
G01*
X815000Y2405000D01*
X826000Y2414000D01*
G37*
G36*
X594900Y2508180D02*
G01*
X594900Y2496180D01*
X609460Y2496180D01*
X609460Y2508180D01*
G37*
G36*
X530540Y2508180D02*
G01*
X530540Y2496180D01*
X545100Y2496180D01*
X545100Y2508180D01*
G37*
G36*
X1124720Y2489160D02*
G01*
X1114500Y2475000D01*
X1124340Y2460820D01*
G37*
D10*
X829724Y2510738D02*
G01*
X829724Y2479241D01*
X786033Y2522937D02*
G01*
X817529Y2522937D01*
X786033Y2467046D02*
G01*
X817529Y2467046D01*
X763361Y2523166D02*
G01*
X731864Y2523166D01*
X719666Y2510969D02*
G01*
X719666Y2479474D01*
X763361Y2467276D02*
G01*
X731864Y2467276D01*
X964724Y2470738D02*
G01*
X964724Y2439241D01*
X921033Y2482937D02*
G01*
X952529Y2482937D01*
X921033Y2427046D02*
G01*
X952529Y2427046D01*
X898361Y2483166D02*
G01*
X866864Y2483166D01*
X854666Y2470969D02*
G01*
X854666Y2439474D01*
X898361Y2427276D02*
G01*
X866864Y2427276D01*
X449724Y2285738D02*
G01*
X449724Y2254241D01*
X406033Y2297937D02*
G01*
X437528Y2297937D01*
X406033Y2242046D02*
G01*
X437528Y2242046D01*
X383360Y2298166D02*
G01*
X351864Y2298166D01*
X339666Y2285969D02*
G01*
X339666Y2254474D01*
X383360Y2242276D02*
G01*
X351864Y2242276D01*
X1144724Y2285738D02*
G01*
X1144724Y2254241D01*
X1101033Y2297937D02*
G01*
X1132529Y2297937D01*
X1101033Y2242046D02*
G01*
X1132529Y2242046D01*
X1078361Y2298166D02*
G01*
X1046864Y2298166D01*
X1034666Y2285969D02*
G01*
X1034666Y2254474D01*
X1078361Y2242276D02*
G01*
X1046864Y2242276D01*
X394261Y3059724D02*
G01*
X425758Y3059724D01*
X382062Y3016033D02*
G01*
X382062Y3047528D01*
X437953Y3016033D02*
G01*
X437953Y3047528D01*
X381833Y2993361D02*
G01*
X381833Y2961864D01*
X394030Y2949666D02*
G01*
X425525Y2949666D01*
X437723Y2993361D02*
G01*
X437723Y2961864D01*
X330275Y3259261D02*
G01*
X330275Y3290758D01*
X373966Y3247062D02*
G01*
X342471Y3247062D01*
X373966Y3302953D02*
G01*
X342471Y3302953D01*
X396639Y3246833D02*
G01*
X428135Y3246833D01*
X440333Y3259031D02*
G01*
X440333Y3290526D01*
X396639Y3302723D02*
G01*
X428135Y3302723D01*
X330275Y3184261D02*
G01*
X330275Y3215758D01*
X373966Y3172062D02*
G01*
X342471Y3172062D01*
X373966Y3227953D02*
G01*
X342471Y3227953D01*
X396639Y3171833D02*
G01*
X428135Y3171833D01*
X440333Y3184031D02*
G01*
X440333Y3215526D01*
X396639Y3227723D02*
G01*
X428135Y3227723D01*
X1039260Y2634724D02*
G01*
X1070757Y2634724D01*
X1027061Y2591033D02*
G01*
X1027061Y2622528D01*
X1082953Y2591033D02*
G01*
X1082953Y2622528D01*
X1026832Y2568361D02*
G01*
X1026832Y2536864D01*
X1039031Y2524666D02*
G01*
X1070525Y2524666D01*
X1082722Y2568361D02*
G01*
X1082722Y2536864D01*
X994260Y2854724D02*
G01*
X1025757Y2854724D01*
X982061Y2811033D02*
G01*
X982061Y2842528D01*
X1037953Y2811033D02*
G01*
X1037953Y2842528D01*
X981832Y2788361D02*
G01*
X981832Y2756864D01*
X994031Y2744666D02*
G01*
X1025525Y2744666D01*
X1037722Y2788361D02*
G01*
X1037722Y2756864D01*
D11*
X966499Y2578000D02*
G01*
X966499Y2701999D01*
X903500Y2576999D02*
G01*
X903500Y2703000D01*
X966499Y2627264D02*
G01*
X903500Y2627411D01*
D10*
X1124724Y3215738D02*
G01*
X1124724Y3184241D01*
X1081033Y3227937D02*
G01*
X1112529Y3227937D01*
X1081033Y3172046D02*
G01*
X1112529Y3172046D01*
X1058361Y3228166D02*
G01*
X1026864Y3228166D01*
X1014666Y3215969D02*
G01*
X1014666Y3184474D01*
X1058361Y3172276D02*
G01*
X1026864Y3172276D01*
X1124724Y3145738D02*
G01*
X1124724Y3114241D01*
X1081033Y3157937D02*
G01*
X1112529Y3157937D01*
X1081033Y3102046D02*
G01*
X1112529Y3102046D01*
X1058361Y3158166D02*
G01*
X1026864Y3158166D01*
X1014666Y3145969D02*
G01*
X1014666Y3114474D01*
X1058361Y3102276D02*
G01*
X1026864Y3102276D01*
X1164260Y2919724D02*
G01*
X1195757Y2919724D01*
X1152061Y2876033D02*
G01*
X1152061Y2907528D01*
X1207953Y2876033D02*
G01*
X1207953Y2907528D01*
X1151832Y2853361D02*
G01*
X1151832Y2821864D01*
X1164031Y2809666D02*
G01*
X1195525Y2809666D01*
X1207722Y2853361D02*
G01*
X1207722Y2821864D01*
X1239724Y2780738D02*
G01*
X1239724Y2749241D01*
X1196033Y2792937D02*
G01*
X1227529Y2792937D01*
X1196033Y2737046D02*
G01*
X1227529Y2737046D01*
X1173361Y2793166D02*
G01*
X1141864Y2793166D01*
X1129666Y2780969D02*
G01*
X1129666Y2749474D01*
X1173361Y2737276D02*
G01*
X1141864Y2737276D01*
X1239724Y2695738D02*
G01*
X1239724Y2664241D01*
X1196033Y2707937D02*
G01*
X1227529Y2707937D01*
X1196033Y2652046D02*
G01*
X1227529Y2652046D01*
X1173361Y2708166D02*
G01*
X1141864Y2708166D01*
X1129666Y2695969D02*
G01*
X1129666Y2664474D01*
X1173361Y2652276D02*
G01*
X1141864Y2652276D01*
D12*
X689684Y2445590D02*
G01*
X689684Y2394409D01*
X650315Y2445590D02*
G01*
X650315Y2394409D01*
D13*
X679000Y2420000D02*
G01*
X660000Y2420000D01*
D12*
X764684Y2430590D02*
G01*
X764684Y2379409D01*
X725315Y2430590D02*
G01*
X725315Y2379409D01*
D13*
X754000Y2405000D02*
G01*
X735000Y2405000D01*
D12*
X834684Y2430590D02*
G01*
X834684Y2379409D01*
X795315Y2430590D02*
G01*
X795315Y2379409D01*
D13*
X823999Y2405000D02*
G01*
X805000Y2405000D01*
D14*
X606464Y2499180D02*
G01*
X606464Y2390819D01*
X606464Y2390819D02*
G01*
X596898Y2390819D01*
X533535Y2499180D02*
G01*
X533535Y2390819D01*
X533535Y2390819D02*
G01*
X543101Y2390819D01*
X606464Y2483063D02*
G01*
X533535Y2483063D01*
D15*
X1105433Y2446260D02*
G01*
X1060158Y2446260D01*
X1060158Y2503346D01*
X1107402Y2503346D01*
X1131810Y2503739D02*
G01*
X1180630Y2503739D01*
X1180630Y2446653D01*
X1131810Y2446653D01*
X1060158Y2446260D02*
G01*
X1058976Y2446260D01*
X1051102Y2454133D01*
X1051102Y2494290D01*
X1052283Y2495471D01*
X1060158Y2503346D01*
D14*
X1013991Y2353220D02*
G01*
X1013991Y2315468D01*
X1066008Y2315468D01*
X1066008Y2353220D01*
X1013991Y2386779D02*
G01*
X1013991Y2424531D01*
X1066008Y2424531D01*
X1066008Y2386779D01*
X893220Y2401008D02*
G01*
X855469Y2401008D01*
X855469Y2348991D01*
X893220Y2348991D01*
X926779Y2401008D02*
G01*
X964530Y2401008D01*
X964530Y2348991D01*
X926779Y2348991D01*
X536779Y2223991D02*
G01*
X574531Y2223991D01*
X574531Y2276008D01*
X536779Y2276008D01*
X503220Y2223991D02*
G01*
X465468Y2223991D01*
X465468Y2276008D01*
X503220Y2276008D01*
X1191779Y2318991D02*
G01*
X1229530Y2318991D01*
X1229530Y2371008D01*
X1191779Y2371008D01*
X1158220Y2318991D02*
G01*
X1120469Y2318991D01*
X1120469Y2371008D01*
X1158220Y2371008D01*
X368220Y3156008D02*
G01*
X330468Y3156008D01*
X330468Y3103991D01*
X368220Y3103991D01*
X401779Y3156008D02*
G01*
X439531Y3156008D01*
X439531Y3103991D01*
X401779Y3103991D01*
X363220Y3406008D02*
G01*
X325468Y3406008D01*
X325468Y3353991D01*
X363220Y3353991D01*
X396779Y3406008D02*
G01*
X434531Y3406008D01*
X434531Y3353991D01*
X396779Y3353991D01*
X538220Y2931008D02*
G01*
X500468Y2931008D01*
X500468Y2878991D01*
X538220Y2878991D01*
X571779Y2931008D02*
G01*
X609531Y2931008D01*
X609531Y2878991D01*
X571779Y2878991D01*
X451779Y2873991D02*
G01*
X489531Y2873991D01*
X489531Y2926008D01*
X451779Y2926008D01*
X418220Y2873991D02*
G01*
X380468Y2873991D01*
X380468Y2926008D01*
X418220Y2926008D01*
X1096779Y2873991D02*
G01*
X1134530Y2873991D01*
X1134530Y2926008D01*
X1096779Y2926008D01*
X1063220Y2873991D02*
G01*
X1025469Y2873991D01*
X1025469Y2926008D01*
X1063220Y2926008D01*
X1111008Y2816779D02*
G01*
X1111008Y2854531D01*
X1058991Y2854531D01*
X1058991Y2816779D01*
X1111008Y2783220D02*
G01*
X1111008Y2745468D01*
X1058991Y2745468D01*
X1058991Y2783220D01*
X1061779Y2668991D02*
G01*
X1099530Y2668991D01*
X1099530Y2721008D01*
X1061779Y2721008D01*
X1028220Y2668991D02*
G01*
X990469Y2668991D01*
X990469Y2721008D01*
X1028220Y2721008D01*
X1153220Y2576008D02*
G01*
X1115469Y2576008D01*
X1115469Y2523991D01*
X1153220Y2523991D01*
X1186779Y2576008D02*
G01*
X1224530Y2576008D01*
X1224530Y2523991D01*
X1186779Y2523991D01*
D10*
X430000Y2185000D02*
G01*
X470000Y2185000D01*
X430000Y2105000D02*
G01*
X470000Y2105000D01*
X536610Y2166410D02*
G01*
X536610Y2123589D01*
X503796Y2204994D02*
G01*
X396203Y2204994D01*
X363389Y2166410D02*
G01*
X363389Y2123589D01*
X395626Y2083980D02*
G01*
X504373Y2083980D01*
X1120000Y2200000D02*
G01*
X1160000Y2200000D01*
X1120000Y2120000D02*
G01*
X1160000Y2120000D01*
X1226610Y2181410D02*
G01*
X1226610Y2138589D01*
X1193796Y2219994D02*
G01*
X1086203Y2219994D01*
X1053389Y2181410D02*
G01*
X1053389Y2138589D01*
X1085626Y2098980D02*
G01*
X1194373Y2098980D01*
X979843Y2969528D02*
G01*
X979844Y3623072D01*
X979844Y3410471D02*
G01*
X460156Y3410471D01*
X460156Y3623072D02*
G01*
X979844Y3623072D01*
X460156Y2969528D02*
G01*
X460156Y3623072D01*
X460156Y2969528D02*
G01*
X979843Y2969528D01*
X795000Y2855000D02*
G01*
X585000Y2855000D01*
X585000Y2540000D01*
X795000Y2540000D01*
X795000Y2855000D01*
X350000Y2505039D02*
G01*
X324133Y2505039D01*
X350000Y2405000D02*
G01*
X324133Y2405000D01*
X350000Y2544409D02*
G01*
X350000Y2505039D01*
X350000Y2365590D02*
G01*
X350000Y2404960D01*
X490000Y2365590D02*
G01*
X490000Y2544409D01*
X324133Y2336889D02*
G01*
X324133Y2573110D01*
X414121Y2544409D02*
G01*
X414121Y2573110D01*
X375549Y2544409D02*
G01*
X375549Y2573110D01*
X490000Y2544409D02*
G01*
X350000Y2544409D01*
X324133Y2573110D02*
G01*
X509171Y2573110D01*
X374836Y2336889D02*
G01*
X374836Y2365590D01*
X413407Y2336889D02*
G01*
X413407Y2365590D01*
X350000Y2365590D02*
G01*
X490000Y2365590D01*
X509171Y2336889D02*
G01*
X509171Y2573110D01*
X324133Y2336889D02*
G01*
X509171Y2336889D01*
X480000Y2679960D02*
G01*
X505866Y2679960D01*
X480000Y2780000D02*
G01*
X505866Y2780000D01*
X480000Y2640590D02*
G01*
X480000Y2679960D01*
X480000Y2819409D02*
G01*
X480000Y2780039D01*
X340000Y2819409D02*
G01*
X340000Y2640590D01*
X505866Y2848110D02*
G01*
X505866Y2611889D01*
X415878Y2640590D02*
G01*
X415878Y2611889D01*
X454450Y2640590D02*
G01*
X454450Y2611889D01*
X340000Y2640590D02*
G01*
X480000Y2640590D01*
X505866Y2611889D02*
G01*
X320828Y2611889D01*
X455163Y2848110D02*
G01*
X455163Y2819409D01*
X416592Y2848110D02*
G01*
X416592Y2819409D01*
X480000Y2819409D02*
G01*
X340000Y2819409D01*
X320828Y2848110D02*
G01*
X320828Y2611889D01*
X505866Y2848110D02*
G01*
X320828Y2848110D01*
X1109961Y3270000D02*
G01*
X1109961Y3244133D01*
X1210000Y3270000D02*
G01*
X1210000Y3244133D01*
X1070591Y3270000D02*
G01*
X1109961Y3270000D01*
X1249408Y3270000D02*
G01*
X1210038Y3270000D01*
X1249408Y3410000D02*
G01*
X1070591Y3410000D01*
X1278109Y3244133D02*
G01*
X1041890Y3244133D01*
X1070591Y3334121D02*
G01*
X1041890Y3334121D01*
X1070591Y3295549D02*
G01*
X1041890Y3295549D01*
X1070591Y3410000D02*
G01*
X1070591Y3270000D01*
X1041890Y3244133D02*
G01*
X1041890Y3429171D01*
X1278109Y3294836D02*
G01*
X1249408Y3294836D01*
X1278109Y3333407D02*
G01*
X1249408Y3333407D01*
X1249408Y3270000D02*
G01*
X1249408Y3410000D01*
X1278109Y3429171D02*
G01*
X1041890Y3429171D01*
X1278109Y3244133D02*
G01*
X1278109Y3429171D01*
D16*
X1187677Y3053307D02*
G01*
X1187677Y3072991D01*
X1180983Y3072991D01*
X1187677Y2966693D02*
G01*
X1187677Y2947008D01*
X1180983Y2947008D01*
X1022322Y3053307D02*
G01*
X1022322Y3072991D01*
X1029016Y3072991D01*
X1029016Y2947008D02*
G01*
X1022322Y2947008D01*
X1022322Y2966693D01*
X1259369Y3164522D02*
G01*
X1259369Y3135477D01*
X1180630Y3164522D02*
G01*
X1180630Y3135477D01*
D10*
X619056Y2160839D02*
G01*
X619056Y2234182D01*
X971023Y2014447D02*
G01*
X619056Y2014447D01*
X619056Y2072766D01*
X971023Y2160826D02*
G01*
X971023Y2234196D01*
X971023Y2014447D02*
G01*
X971023Y2072779D01*
G75*
G01*
X719665Y2510969D02*
G02*
X731863Y2523167I12198J0D01*
G75*
G01*
X731863Y2467275D02*
G02*
X719665Y2479474I0J12198D01*
G75*
G01*
X817527Y2522938D02*
G02*
X829725Y2510739I0J-12198D01*
G75*
G01*
X829725Y2479244D02*
G02*
X817527Y2467046I-12198J0D01*
G75*
G01*
X854665Y2470969D02*
G02*
X866863Y2483167I12198J0D01*
G75*
G01*
X866863Y2427275D02*
G02*
X854665Y2439474I0J12198D01*
G75*
G01*
X952527Y2482938D02*
G02*
X964725Y2470739I0J-12198D01*
G75*
G01*
X964725Y2439244D02*
G02*
X952527Y2427046I-12198J0D01*
G75*
G01*
X339665Y2285969D02*
G02*
X351863Y2298167I12198J0D01*
G75*
G01*
X351863Y2242275D02*
G02*
X339665Y2254474I0J12198D01*
G75*
G01*
X437527Y2297938D02*
G02*
X449725Y2285739I0J-12198D01*
G75*
G01*
X449725Y2254244D02*
G02*
X437527Y2242046I-12198J0D01*
G75*
G01*
X1034665Y2285969D02*
G02*
X1046863Y2298167I12198J0D01*
G75*
G01*
X1046863Y2242275D02*
G02*
X1034665Y2254474I0J12198D01*
G75*
G01*
X1132527Y2297938D02*
G02*
X1144725Y2285739I0J-12198D01*
G75*
G01*
X1144725Y2254244D02*
G02*
X1132527Y2242046I-12198J0D01*
G75*
G01*
X394031Y2949665D02*
G02*
X381833Y2961863I0J12198D01*
G75*
G01*
X437725Y2961863D02*
G02*
X425526Y2949665I-12198J0D01*
G75*
G01*
X382062Y3047527D02*
G02*
X394261Y3059725I12198J0D01*
G75*
G01*
X425756Y3059725D02*
G02*
X437954Y3047527I0J-12198D01*
G75*
G01*
X440335Y3259031D02*
G02*
X428137Y3246833I-12198J0D01*
G75*
G01*
X428137Y3302725D02*
G02*
X440335Y3290526I0J-12198D01*
G75*
G01*
X342473Y3247062D02*
G02*
X330275Y3259261I0J12198D01*
G75*
G01*
X330275Y3290756D02*
G02*
X342473Y3302954I12198J0D01*
G75*
G01*
X440335Y3184031D02*
G02*
X428137Y3171833I-12198J0D01*
G75*
G01*
X428137Y3227725D02*
G02*
X440335Y3215526I0J-12198D01*
G75*
G01*
X342473Y3172062D02*
G02*
X330275Y3184261I0J12198D01*
G75*
G01*
X330275Y3215756D02*
G02*
X342473Y3227954I12198J0D01*
G75*
G01*
X1039031Y2524665D02*
G02*
X1026833Y2536863I0J12198D01*
G75*
G01*
X1082725Y2536863D02*
G02*
X1070526Y2524665I-12198J0D01*
G75*
G01*
X1027062Y2622527D02*
G02*
X1039261Y2634725I12198J0D01*
G75*
G01*
X1070756Y2634725D02*
G02*
X1082954Y2622527I0J-12198D01*
G75*
G01*
X994031Y2744665D02*
G02*
X981833Y2756863I0J12198D01*
G75*
G01*
X1037725Y2756863D02*
G02*
X1025526Y2744665I-12198J0D01*
G75*
G01*
X982062Y2842527D02*
G02*
X994261Y2854725I12198J0D01*
G75*
G01*
X1025756Y2854725D02*
G02*
X1037954Y2842527I0J-12198D01*
G75*
G01*
X1014665Y3215969D02*
G02*
X1026863Y3228167I12198J0D01*
G75*
G01*
X1026863Y3172275D02*
G02*
X1014665Y3184474I0J12198D01*
G75*
G01*
X1112527Y3227938D02*
G02*
X1124725Y3215739I0J-12198D01*
G75*
G01*
X1124725Y3184244D02*
G02*
X1112527Y3172046I-12198J0D01*
G75*
G01*
X1014665Y3145969D02*
G02*
X1026863Y3158167I12198J0D01*
G75*
G01*
X1026863Y3102275D02*
G02*
X1014665Y3114474I0J12198D01*
G75*
G01*
X1112527Y3157938D02*
G02*
X1124725Y3145739I0J-12198D01*
G75*
G01*
X1124725Y3114244D02*
G02*
X1112527Y3102046I-12198J0D01*
G75*
G01*
X1164031Y2809665D02*
G02*
X1151833Y2821863I0J12198D01*
G75*
G01*
X1207725Y2821863D02*
G02*
X1195526Y2809665I-12198J0D01*
G75*
G01*
X1152062Y2907527D02*
G02*
X1164261Y2919725I12198J0D01*
G75*
G01*
X1195756Y2919725D02*
G02*
X1207954Y2907527I0J-12198D01*
G75*
G01*
X1129665Y2780969D02*
G02*
X1141863Y2793167I12198J0D01*
G75*
G01*
X1141863Y2737275D02*
G02*
X1129665Y2749474I0J12198D01*
G75*
G01*
X1227527Y2792938D02*
G02*
X1239725Y2780739I0J-12198D01*
G75*
G01*
X1239725Y2749244D02*
G02*
X1227527Y2737046I-12198J0D01*
G75*
G01*
X1129665Y2695969D02*
G02*
X1141863Y2708167I12198J0D01*
G75*
G01*
X1141863Y2652275D02*
G02*
X1129665Y2664474I0J12198D01*
G75*
G01*
X1227527Y2707938D02*
G02*
X1239725Y2695739I0J-12198D01*
G75*
G01*
X1239725Y2664244D02*
G02*
X1227527Y2652046I-12198J0D01*
G75*
G01*
X470000Y2185000D02*
G02*
X470000Y2105000I0J-40000D01*
G75*
G01*
X430000Y2105000D02*
G02*
X430000Y2185000I0J40000D01*
G75*
G01*
X1160000Y2200000D02*
G02*
X1160000Y2120000I0J-40000D01*
G75*
G01*
X1120000Y2120000D02*
G02*
X1120000Y2200000I0J40000D01*
D17*
G75*
G01*
X1028200Y2932200D02*
G03*
X1028300Y2932200I50J-4921D01*
D10*
G75*
G01
X448350Y3347480D02*
G03X448350Y3347480I-3940J0D01*
D18*
G75*
G01
X624300Y2835750D02*
G03X624300Y2835750I-5910J0D01*
G75*
G01
X555670Y2859620D02*
G03X555670Y2859620I-5910J0D01*
M02*
